  0
SECTION
2
HEADER
  9
$PDSIZE
 40
2.0
  9
$PDMODE
 70
30
  9
$TEXTSIZE
 40
.2
  9
$TEXTSTYLE
  7
STANDARD
  0
ENDSEC
  0
SECTION
  2
ENTITIES
0
TEXT
8
1
10
         2.356545292
20
     -0.7661158220753
40
0.001
1
14  
0
POINT
8
3
10
      2.3555452919857
20
     -0.7661158220753
0
TEXT
8
1
10
        10.947405828
20
     64.5195296450150
40
0.001
1
15  
0
POINT
8
3
10
     10.9464058280233
20
     64.5195296450150
0
TEXT
8
1
10
        12.426980740
20
     -4.9536931197778
40
0.001
1
17  
0
POINT
8
3
10
     12.4259807397461
20
     -4.9536931197778
0
TEXT
8
1
10
        -3.509699917
20
     63.6201481585545
40
0.001
1
4   
0
POINT
8
3
10
     -3.5106999171270
20
     63.6201481585545
0
TEXT
8
1
10
        -2.114151392
20
     -0.8671383691035
40
0.001
1
5   
0
POINT
8
3
10
     -2.1151513916551
20
     -0.8671383691035
0
TEXT
8
1
10
         0.001000000
20
      0.0000000000000
40
0.001
1
561 
0
POINT
8
3
10
      0.0000000000000
20
      0.0000000000000
0
TEXT
8
1
10
         0.001000000
20
      8.5531636649035
40
0.001
1
562 
0
POINT
8
3
10
      0.0000000000000
20
      8.5531636649035
0
TEXT
8
1
10
        -1.958267359
20
     -0.8457103447873
40
0.001
1
563 
0
POINT
8
3
10
     -1.9592673590534
20
     -0.8457103447873
0
TEXT
8
1
10
        -1.959752583
20
     -0.8397242895597
40
0.001
1
564 
0
POINT
8
3
10
     -1.9607525826565
20
     -0.8397242895597
0
TEXT
8
1
10
        -1.963728244
20
     -0.8329450743463
40
0.001
1
565 
0
POINT
8
3
10
     -1.9647282444792
20
     -0.8329450743463
0
TEXT
8
1
10
        -1.967627524
20
     -0.8288547760809
40
0.001
1
566 
0
POINT
8
3
10
     -1.9686275241958
20
     -0.8288547760809
0
TEXT
8
1
10
        -1.969523210
20
     -0.8243378235432
40
0.001
1
567 
0
POINT
8
3
10
     -1.9705232100966
20
     -0.8243378235432
0
TEXT
8
1
10
        -1.955392717
20
     -0.8623051112931
40
0.001
1
568 
0
POINT
8
3
10
     -1.9563927165091
20
     -0.8623051112931
0
TEXT
8
1
10
        -1.956449505
20
     -0.8673355742965
40
0.001
1
569 
0
POINT
8
3
10
     -1.9574495047651
20
     -0.8673355742965
0
TEXT
8
1
10
        -1.956369411
20
     -0.8600857829894
40
0.001
1
570 
0
POINT
8
3
10
     -1.9573694112435
20
     -0.8600857829894
0
TEXT
8
1
10
        -1.908351321
20
      0.6501271086847
40
0.001
1
571 
0
POINT
8
3
10
     -1.9093513208489
20
      0.6501271086847
0
TEXT
8
1
10
        -1.907204348
20
      0.6596331464505
40
0.001
1
572 
0
POINT
8
3
10
     -1.9082043479266
20
      0.6596331464505
0
TEXT
8
1
10
        -1.906520498
20
      0.6676865038962
40
0.001
1
573 
0
POINT
8
3
10
     -1.9075204982706
20
      0.6676865038962
0
TEXT
8
1
10
        -1.906686476
20
      0.6732458877939
40
0.001
1
574 
0
POINT
8
3
10
     -1.9076864760330
20
      0.6732458877939
0
TEXT
8
1
10
        -1.910487508
20
      0.6438192536172
40
0.001
1
575 
0
POINT
8
3
10
     -1.9114875078185
20
      0.6438192536172
0
TEXT
8
1
10
        -1.911504511
20
      0.6407918698261
40
0.001
1
576 
0
POINT
8
3
10
     -1.9125045106977
20
      0.6407918698261
0
TEXT
8
1
10
        -1.914115067
20
      0.6392917973399
40
0.001
1
577 
0
POINT
8
3
10
     -1.9151150668292
20
      0.6392917973399
0
TEXT
8
1
10
        -1.915032929
20
      0.6365355742994
40
0.001
1
578 
0
POINT
8
3
10
     -1.9160329287342
20
      0.6365355742994
0
TEXT
8
1
10
        -1.917274427
20
      0.6329470301726
40
0.001
1
579 
0
POINT
8
3
10
     -1.9182744269450
20
      0.6329470301726
0
TEXT
8
1
10
        -1.920051627
20
      0.6309067780415
40
0.001
1
580 
0
POINT
8
3
10
     -1.9210516273544
20
      0.6309067780415
0
TEXT
8
1
10
        -2.176587578
20
      8.2256410466495
40
0.001
1
581 
0
POINT
8
3
10
     -2.1775875781577
20
      8.2256410466495
0
TEXT
8
1
10
        -2.198184004
20
      8.2229989049305
40
0.001
1
582 
0
POINT
8
3
10
     -2.1991840037537
20
      8.2229989049305
0
TEXT
8
1
10
        -2.161685848
20
      8.2326733929027
40
0.001
1
583 
0
POINT
8
3
10
     -2.1626858483487
20
      8.2326733929027
0
TEXT
8
1
10
        -2.243293047
20
     14.2857832869354
40
0.001
1
584 
0
POINT
8
3
10
     -2.2442930473925
20
     14.2857832869354
0
TEXT
8
1
10
        -2.260702084
20
     14.2870872837070
40
0.001
1
585 
0
POINT
8
3
10
     -2.2617020836753
20
     14.2870872837070
0
TEXT
8
1
10
        -2.223799764
20
     14.2928802337980
40
0.001
1
586 
0
POINT
8
3
10
     -2.2247997639946
20
     14.2928802337980
0
TEXT
8
1
10
         1.782326155
20
     12.8672811502947
40
0.001
1
587 
0
POINT
8
3
10
      1.7813261547250
20
     12.8672811502947
0
TEXT
8
1
10
         1.761738304
20
     12.8751610729096
40
0.001
1
588 
0
POINT
8
3
10
      1.7607383042680
20
     12.8751610729096
0
TEXT
8
1
10
         1.797783802
20
     12.8661414585571
40
0.001
1
589 
0
POINT
8
3
10
      1.7967838018205
20
     12.8661414585571
0
TEXT
8
1
10
         2.065182733
20
      6.7745005654777
40
0.001
1
590 
0
POINT
8
3
10
      2.0641827331891
20
      6.7745005654777
0
TEXT
8
1
10
         2.047887895
20
      6.7828798602189
40
0.001
1
591 
0
POINT
8
3
10
      2.0468878953569
20
      6.7828798602189
0
TEXT
8
1
10
         2.081590406
20
      6.7736639872241
40
0.001
1
592 
0
POINT
8
3
10
      2.0805904061252
20
      6.7736639872241
0
TEXT
8
1
10
         2.122577554
20
      3.7528154569017
40
0.001
1
593 
0
POINT
8
3
10
      2.1215775538155
20
      3.7528154569017
0
TEXT
8
1
10
         2.142815676
20
      3.7482140768214
40
0.001
1
594 
0
POINT
8
3
10
      2.1418156756579
20
      3.7482140768214
0
TEXT
8
1
10
         2.108615580
20
      3.7606743727775
40
0.001
1
595 
0
POINT
8
3
10
      2.1076155798316
20
      3.7606743727775
0
TEXT
8
1
10
         2.102357583
20
      3.7676101803300
40
0.001
1
596 
0
POINT
8
3
10
      2.1013575829381
20
      3.7676101803300
0
TEXT
8
1
10
         2.097193895
20
      3.7750614967603
40
0.001
1
597 
0
POINT
8
3
10
      2.0961938954079
20
      3.7750614967603
0
TEXT
8
1
10
        -1.987619316
20
     -0.8150962294363
40
0.001
1
598 
0
POINT
8
3
10
     -1.9886193155183
20
     -0.8150962294363
0
TEXT
8
1
10
        -1.973519500
20
     -0.8221659265858
40
0.001
1
599 
0
POINT
8
3
10
     -1.9745195002472
20
     -0.8221659265858
0
TEXT
8
1
10
       -10.660763610
20
     -5.4938863844419
40
0.001
1
6   
0
POINT
8
3
10
    -10.6617636097702
20
     -5.4938863844419
0
TEXT
8
1
10
        -2.012490282
20
     -0.8118280117011
40
0.001
1
600 
0
POINT
8
3
10
     -2.0134902818384
20
     -0.8118280117011
0
TEXT
8
1
10
        -1.944039535
20
      0.7128266351302
40
0.001
1
601 
0
POINT
8
3
10
     -1.9450395345360
20
      0.7128266351302
0
TEXT
8
1
10
        -1.924056638
20
      0.7017184194589
40
0.001
1
602 
0
POINT
8
3
10
     -1.9250566377927
20
      0.7017184194589
0
TEXT
8
1
10
        -1.960256817
20
      0.7137751545952
40
0.001
1
603 
0
POINT
8
3
10
     -1.9612568165802
20
      0.7137751545952
0
TEXT
8
1
10
        -2.143433550
20
      8.2860975943977
40
0.001
1
604 
0
POINT
8
3
10
     -2.1444335497145
20
      8.2860975943977
0
TEXT
8
1
10
        -2.144060972
20
      8.2911847280723
40
0.001
1
605 
0
POINT
8
3
10
     -2.1450609715841
20
      8.2911847280723
0
TEXT
8
1
10
        -2.146551277
20
      8.2951112582103
40
0.001
1
606 
0
POINT
8
3
10
     -2.1475512771163
20
      8.2951112582103
0
TEXT
8
1
10
        -2.143158061
20
      8.2838947574126
40
0.001
1
607 
0
POINT
8
3
10
     -2.1441580610149
20
      8.2838947574126
0
TEXT
8
1
10
        -2.141558650
20
      8.2714511056803
40
0.001
1
608 
0
POINT
8
3
10
     -2.1425586501033
20
      8.2714511056803
0
TEXT
8
1
10
        -2.142303541
20
      8.2619292863888
40
0.001
1
609 
0
POINT
8
3
10
     -2.1433035410821
20
      8.2619292863888
0
TEXT
8
1
10
        -2.143622338
20
      8.2568217027610
40
0.001
1
610 
0
POINT
8
3
10
     -2.1446223376628
20
      8.2568217027610
0
TEXT
8
1
10
        -2.228402230
20
     14.2869981430803
40
0.001
1
611 
0
POINT
8
3
10
     -2.2294022304495
20
     14.2869981430803
0
TEXT
8
1
10
        -2.250103629
20
     14.2838852214533
40
0.001
1
612 
0
POINT
8
3
10
     -2.2511036293899
20
     14.2838852214533
0
TEXT
8
1
10
        -2.210255488
20
     14.3025929637574
40
0.001
1
613 
0
POINT
8
3
10
     -2.2112554883702
20
     14.3025929637574
0
TEXT
8
1
10
        -2.419322210
20
     18.8587641445871
40
0.001
1
614 
0
POINT
8
3
10
     -2.4203222102684
20
     18.8587641445871
0
TEXT
8
1
10
        -2.440409966
20
     18.8578995762012
40
0.001
1
615 
0
POINT
8
3
10
     -2.4414099656175
20
     18.8578995762012
0
TEXT
8
1
10
        -2.403682957
20
     18.8655050916940
40
0.001
1
616 
0
POINT
8
3
10
     -2.4046829574286
20
     18.8655050916940
0
TEXT
8
1
10
        -2.500240312
20
     26.4562813654411
40
0.001
1
617 
0
POINT
8
3
10
     -2.5012403119692
20
     26.4562813654411
0
TEXT
8
1
10
        -2.519611480
20
     26.4565939292783
40
0.001
1
618 
0
POINT
8
3
10
     -2.5206114798131
20
     26.4565939292783
0
TEXT
8
1
10
        -2.482002648
20
     26.4628581431320
40
0.001
1
619 
0
POINT
8
3
10
     -2.4830026477368
20
     26.4628581431320
0
TEXT
8
1
10
         1.648303520
20
     18.9200998347073
40
0.001
1
620 
0
POINT
8
3
10
      1.6473035203523
20
     18.9200998347073
0
TEXT
8
1
10
         1.628948043
20
     18.9282181019848
40
0.001
1
621 
0
POINT
8
3
10
      1.6279480432797
20
     18.9282181019848
0
TEXT
8
1
10
         1.663697811
20
     18.9196675314120
40
0.001
1
622 
0
POINT
8
3
10
      1.6626978106214
20
     18.9196675314120
0
TEXT
8
1
10
         1.773591072
20
     12.8682695808028
40
0.001
1
623 
0
POINT
8
3
10
      1.7725910719278
20
     12.8682695808028
0
TEXT
8
1
10
         1.757921905
20
     12.8746730764807
40
0.001
1
624 
0
POINT
8
3
10
      1.7569219047404
20
     12.8746730764807
0
TEXT
8
1
10
         1.792910526
20
     12.8646147930718
40
0.001
1
625 
0
POINT
8
3
10
      1.7919105255041
20
     12.8646147930718
0
TEXT
8
1
10
         2.039533858
20
      6.8552866079781
40
0.001
1
626 
0
POINT
8
3
10
      2.0385338583855
20
      6.8552866079781
0
TEXT
8
1
10
         2.048885183
20
      6.8634331929608
40
0.001
1
627 
0
POINT
8
3
10
      2.0478851825911
20
      6.8634331929608
0
TEXT
8
1
10
         2.030768381
20
      6.8417130789974
40
0.001
1
628 
0
POINT
8
3
10
      2.0297683810942
20
      6.8417130789974
0
TEXT
8
1
10
         2.123387892
20
      3.8421817859925
40
0.001
1
629 
0
POINT
8
3
10
      2.1223878915216
20
      3.8421817859925
0
TEXT
8
1
10
         2.142050090
20
      3.8473379002571
40
0.001
1
630 
0
POINT
8
3
10
      2.1410500901586
20
      3.8473379002571
0
TEXT
8
1
10
         2.108332913
20
      3.8321426302249
40
0.001
1
631 
0
POINT
8
3
10
      2.1073329129259
20
      3.8321426302249
0
TEXT
8
1
10
        -0.166314706
20
     16.4549247357643
40
0.001
1
632 
0
POINT
8
3
10
     -0.1673147064686
20
     16.4549247357643
0
TEXT
8
1
10
        -1.999064996
20
     -0.8130849002790
40
0.001
1
633 
0
POINT
8
3
10
     -2.0000649956685
20
     -0.8130849002790
0
TEXT
8
1
10
        -1.976849913
20
     -0.8214611308819
40
0.001
1
634 
0
POINT
8
3
10
     -1.9778499130909
20
     -0.8214611308819
0
TEXT
8
1
10
        -2.014957154
20
     -0.8123964955316
40
0.001
1
635 
0
POINT
8
3
10
     -2.0159571536152
20
     -0.8123964955316
0
TEXT
8
1
10
        -1.949415702
20
      0.7115830289685
40
0.001
1
636 
0
POINT
8
3
10
     -1.9504157019757
20
      0.7115830289685
0
TEXT
8
1
10
        -1.927626177
20
      0.7030929977718
40
0.001
1
637 
0
POINT
8
3
10
     -1.9286261767765
20
      0.7030929977718
0
TEXT
8
1
10
        -1.973739363
20
      0.7083175675868
40
0.001
1
638 
0
POINT
8
3
10
     -1.9747393628690
20
      0.7083175675868
0
TEXT
8
1
10
        -2.173106866
20
      8.3187608238582
40
0.001
1
639 
0
POINT
8
3
10
     -2.1741068658288
20
      8.3187608238582
0
TEXT
8
1
10
        -2.159211095
20
      8.3101984093499
40
0.001
1
640 
0
POINT
8
3
10
     -2.1602110945907
20
      8.3101984093499
0
TEXT
8
1
10
        -2.189958460
20
      8.3219053132331
40
0.001
1
641 
0
POINT
8
3
10
     -2.1909584596388
20
      8.3219053132331
0
TEXT
8
1
10
        -2.218385483
20
     14.3705476476027
40
0.001
1
642 
0
POINT
8
3
10
     -2.2193854826969
20
     14.3705476476027
0
TEXT
8
1
10
        -2.226749240
20
     14.3759981263442
40
0.001
1
643 
0
POINT
8
3
10
     -2.2277492395895
20
     14.3759981263442
0
TEXT
8
1
10
        -2.220198575
20
     14.3723341920325
40
0.001
1
644 
0
POINT
8
3
10
     -2.2211985745250
20
     14.3723341920325
0
TEXT
8
1
10
        -2.212135800
20
     14.3644132263387
40
0.001
1
645 
0
POINT
8
3
10
     -2.2131357996394
20
     14.3644132263387
0
TEXT
8
1
10
        -2.206899795
20
     14.3565113333454
40
0.001
1
646 
0
POINT
8
3
10
     -2.2078997954028
20
     14.3565113333454
0
TEXT
8
1
10
        -2.202997590
20
     14.3485486676804
40
0.001
1
647 
0
POINT
8
3
10
     -2.2039975897186
20
     14.3485486676804
0
TEXT
8
1
10
        -2.201989374
20
     14.3447944199140
40
0.001
1
648 
0
POINT
8
3
10
     -2.2029893743790
20
     14.3447944199140
0
TEXT
8
1
10
        -2.397136701
20
     18.8717306519220
40
0.001
1
649 
0
POINT
8
3
10
     -2.3981367008074
20
     18.8717306519220
0
TEXT
8
1
10
        -2.410522258
20
     18.8620412825104
40
0.001
1
650 
0
POINT
8
3
10
     -2.4115222577110
20
     18.8620412825104
0
TEXT
8
1
10
        -2.387620455
20
     18.8859011593389
40
0.001
1
651 
0
POINT
8
3
10
     -2.3886204545741
20
     18.8859011593389
0
TEXT
8
1
10
        -2.495877365
20
     26.4561979417573
40
0.001
1
652 
0
POINT
8
3
10
     -2.4968773652490
20
     26.4561979417573
0
TEXT
8
1
10
        -2.516048365
20
     26.4555870954174
40
0.001
1
653 
0
POINT
8
3
10
     -2.5170483646822
20
     26.4555870954174
0
TEXT
8
1
10
        -2.476506264
20
     26.4647954075147
40
0.001
1
654 
0
POINT
8
3
10
     -2.4775062637110
20
     26.4647954075147
0
TEXT
8
1
10
        -2.486271507
20
     29.5002398095027
40
0.001
1
655 
0
POINT
8
3
10
     -2.4872715071670
20
     29.5002398095027
0
TEXT
8
1
10
        -2.506933926
20
     29.5006122441254
40
0.001
1
656 
0
POINT
8
3
10
     -2.5079339260659
20
     29.5006122441254
0
TEXT
8
1
10
        -2.470366845
20
     29.5071201311603
40
0.001
1
657 
0
POINT
8
3
10
     -2.4713668450629
20
     29.5071201311603
0
TEXT
8
1
10
         1.511284008
20
     32.6170898361516
40
0.001
1
658 
0
POINT
8
3
10
      1.5102840083263
20
     32.6170898361516
0
TEXT
8
1
10
         1.492346229
20
     32.6240705707085
40
0.001
1
659 
0
POINT
8
3
10
      1.4913462285593
20
     32.6240705707085
0
TEXT
8
1
10
         1.527336077
20
     32.6184320337931
40
0.001
1
660 
0
POINT
8
3
10
      1.5263360769107
20
     32.6184320337931
0
TEXT
8
1
10
         1.637499602
20
     18.9254979496110
40
0.001
1
661 
0
POINT
8
3
10
      1.6364996021019
20
     18.9254979496110
0
TEXT
8
1
10
         1.646718783
20
     18.9224641222700
40
0.001
1
662 
0
POINT
8
3
10
      1.6457187833113
20
     18.9224641222700
0
TEXT
8
1
10
         1.630650402
20
     18.9292483740913
40
0.001
1
663 
0
POINT
8
3
10
      1.6296504015721
20
     18.9292483740913
0
TEXT
8
1
10
         1.618141805
20
     18.9395158537266
40
0.001
1
664 
0
POINT
8
3
10
      1.6171418050003
20
     18.9395158537266
0
TEXT
8
1
10
         1.610185906
20
     18.9550310584191
40
0.001
1
665 
0
POINT
8
3
10
      1.6091859056421
20
     18.9550310584191
0
TEXT
8
1
10
         1.767963415
20
     12.9571294102876
40
0.001
1
666 
0
POINT
8
3
10
      1.7669634146346
20
     12.9571294102876
0
TEXT
8
1
10
         1.786700590
20
     12.9641187780223
40
0.001
1
667 
0
POINT
8
3
10
      1.7857005895730
20
     12.9641187780223
0
TEXT
8
1
10
         1.750814292
20
     12.9442821471681
40
0.001
1
668 
0
POINT
8
3
10
      1.7498142918814
20
     12.9442821471681
0
TEXT
8
1
10
         2.060930445
20
      6.8682510347691
40
0.001
1
669 
0
POINT
8
3
10
      2.0599304453742
20
      6.8682510347691
0
TEXT
8
1
10
         2.080537160
20
      6.8707731147823
40
0.001
1
670 
0
POINT
8
3
10
      2.0795371599074
20
      6.8707731147823
0
TEXT
8
1
10
         2.050115305
20
      6.8636920929944
40
0.001
1
671 
0
POINT
8
3
10
      2.0491153049854
20
      6.8636920929944
0
TEXT
8
1
10
         2.130752949
20
      3.8444309845546
40
0.001
1
672 
0
POINT
8
3
10
      2.1297529488997
20
      3.8444309845546
0
TEXT
8
1
10
         2.155837550
20
      3.8449587830737
40
0.001
1
673 
0
POINT
8
3
10
      2.1548375500494
20
      3.8449587830737
0
TEXT
8
1
10
         2.116805906
20
      3.8398659283667
40
0.001
1
674 
0
POINT
8
3
10
      2.1158059063010
20
      3.8398659283667
0
TEXT
8
1
10
         0.131075801
20
     28.4017554897070
40
0.001
1
675 
0
POINT
8
3
10
      0.1300758009774
20
     28.4017554897070
0
TEXT
8
1
10
        -2.187174602
20
      8.3211334151606
40
0.001
1
676 
0
POINT
8
3
10
     -2.1881746016540
20
      8.3211334151606
0
TEXT
8
1
10
        -2.166948639
20
      8.3157891334666
40
0.001
1
677 
0
POINT
8
3
10
     -2.1679486392744
20
      8.3157891334666
0
TEXT
8
1
10
        -2.204616424
20
      8.3201344739356
40
0.001
1
678 
0
POINT
8
3
10
     -2.2056164242402
20
      8.3201344739356
0
TEXT
8
1
10
        -2.246227865
20
     14.3828994429847
40
0.001
1
679 
0
POINT
8
3
10
     -2.2472278654111
20
     14.3828994429847
0
TEXT
8
1
10
        -2.224172352
20
     14.3761351221978
40
0.001
1
680 
0
POINT
8
3
10
     -2.2251723517007
20
     14.3761351221978
0
TEXT
8
1
10
        -2.258366197
20
     14.3829344086952
40
0.001
1
681 
0
POINT
8
3
10
     -2.2593661969966
20
     14.3829344086952
0
TEXT
8
1
10
        -2.414929348
20
     18.9527542863943
40
0.001
1
682 
0
POINT
8
3
10
     -2.4159293483376
20
     18.9527542863943
0
TEXT
8
1
10
        -2.400188488
20
     18.9436186737488
40
0.001
1
683 
0
POINT
8
3
10
     -2.4011884879612
20
     18.9436186737488
0
TEXT
8
1
10
        -2.437765546
20
     18.9558280564084
40
0.001
1
684 
0
POINT
8
3
10
     -2.4387655462022
20
     18.9558280564084
0
TEXT
8
1
10
        -2.479805321
20
     26.5463564630138
40
0.001
1
685 
0
POINT
8
3
10
     -2.4808053211107
20
     26.5463564630138
0
TEXT
8
1
10
        -2.470470336
20
     26.5384373513305
40
0.001
1
686 
0
POINT
8
3
10
     -2.4714703360634
20
     26.5384373513305
0
TEXT
8
1
10
        -2.460754773
20
     26.5232422316206
40
0.001
1
687 
0
POINT
8
3
10
     -2.4617547731808
20
     26.5232422316206
0
TEXT
8
1
10
        -2.456943609
20
     26.5129017863878
40
0.001
1
688 
0
POINT
8
3
10
     -2.4579436091850
20
     26.5129017863878
0
TEXT
8
1
10
        -2.446594485
20
     29.5380223634552
40
0.001
1
689 
0
POINT
8
3
10
     -2.4475944848520
20
     29.5380223634552
0
TEXT
8
1
10
        -2.446555321
20
     29.5455278893519
40
0.001
1
690 
0
POINT
8
3
10
     -2.4475553214549
20
     29.5455278893519
0
TEXT
8
1
10
        -2.450438445
20
     29.5292619006460
40
0.001
1
691 
0
POINT
8
3
10
     -2.4514384453743
20
     29.5292619006460
0
TEXT
8
1
10
        -2.456981172
20
     29.5166916368039
40
0.001
1
692 
0
POINT
8
3
10
     -2.4579811723048
20
     29.5166916368039
0
TEXT
8
1
10
        -2.792587628
20
     37.0910816884588
40
0.001
1
693 
0
POINT
8
3
10
     -2.7935876280955
20
     37.0910816884588
0
TEXT
8
1
10
        -2.810141791
20
     37.0883229185640
40
0.001
1
694 
0
POINT
8
3
10
     -2.8111417906802
20
     37.0883229185640
0
TEXT
8
1
10
        -2.777236758
20
     37.0993949784582
40
0.001
1
695 
0
POINT
8
3
10
     -2.7782367580972
20
     37.0993949784582
0
TEXT
8
1
10
        -3.442586416
20
     38.9962663394724
40
0.001
1
696 
0
POINT
8
3
10
     -3.4435864158584
20
     38.9962663394724
0
TEXT
8
1
10
        -3.465932068
20
     38.9925873809090
40
0.001
1
697 
0
POINT
8
3
10
     -3.4669320680816
20
     38.9925873809090
0
TEXT
8
1
10
        -3.425110906
20
     39.0042545290503
40
0.001
1
698 
0
POINT
8
3
10
     -3.4261109056695
20
     39.0042545290503
0
TEXT
8
1
10
        -2.792360495
20
     37.0922131791670
40
0.001
1
699 
0
POINT
8
3
10
     -2.7933604950220
20
     37.0922131791670
0
TEXT
8
1
10
        -2.141042975
20
      0.6551719774454
40
0.001
1
7   
0
POINT
8
3
10
     -2.1420429748416
20
      0.6551719774454
0
TEXT
8
1
10
        -2.810523843
20
     37.0881935486561
40
0.001
1
700 
0
POINT
8
3
10
     -2.8115238430251
20
     37.0881935486561
0
TEXT
8
1
10
        -2.777362586
20
     37.1004073255335
40
0.001
1
701 
0
POINT
8
3
10
     -2.7783625860050
20
     37.1004073255335
0
TEXT
8
1
10
        -2.977885045
20
     45.3641932324251
40
0.001
1
702 
0
POINT
8
3
10
     -2.9788850447428
20
     45.3641932324251
0
TEXT
8
1
10
        -3.001927467
20
     45.3628197608213
40
0.001
1
703 
0
POINT
8
3
10
     -3.0029274665727
20
     45.3628197608213
0
TEXT
8
1
10
        -2.965846629
20
     45.3694448476783
40
0.001
1
704 
0
POINT
8
3
10
     -2.9668466285866
20
     45.3694448476783
0
TEXT
8
1
10
        -3.078447519
20
     49.9045435134026
40
0.001
1
705 
0
POINT
8
3
10
     -3.0794475191305
20
     49.9045435134026
0
TEXT
8
1
10
        -3.092497857
20
     49.9024416556263
40
0.001
1
706 
0
POINT
8
3
10
     -3.0934978570841
20
     49.9024416556263
0
TEXT
8
1
10
        -3.066784293
20
     49.9083031328168
40
0.001
1
707 
0
POINT
8
3
10
     -3.0677842931595
20
     49.9083031328168
0
TEXT
8
1
10
         1.315472338
20
     38.6998682846381
40
0.001
1
708 
0
POINT
8
3
10
      1.3144723380889
20
     38.6998682846381
0
TEXT
8
1
10
         1.297365308
20
     38.7069666009535
40
0.001
1
709 
0
POINT
8
3
10
      1.2963653080733
20
     38.7069666009535
0
TEXT
8
1
10
         1.330261088
20
     38.7001701700687
40
0.001
1
710 
0
POINT
8
3
10
      1.3292610879737
20
     38.7001701700687
0
TEXT
8
1
10
         1.507209667
20
     32.6178525488388
40
0.001
1
711 
0
POINT
8
3
10
      1.5062096673621
20
     32.6178525488388
0
TEXT
8
1
10
         1.486982857
20
     32.6275517315929
40
0.001
1
712 
0
POINT
8
3
10
      1.4859828567685
20
     32.6275517315929
0
TEXT
8
1
10
         1.521520343
20
     32.6163138056726
40
0.001
1
713 
0
POINT
8
3
10
      1.5205203425562
20
     32.6163138056726
0
TEXT
8
1
10
         1.650106897
20
     19.0179102125926
40
0.001
1
714 
0
POINT
8
3
10
      1.6491068968160
20
     19.0179102125926
0
TEXT
8
1
10
         1.672743246
20
     19.0155221072751
40
0.001
1
715 
0
POINT
8
3
10
      1.6717432455564
20
     19.0155221072751
0
TEXT
8
1
10
         1.626310912
20
     19.0080135526076
40
0.001
1
716 
0
POINT
8
3
10
      1.6253109123676
20
     19.0080135526076
0
TEXT
8
1
10
         1.780906899
20
     12.9616529733923
40
0.001
1
717 
0
POINT
8
3
10
      1.7799068991367
20
     12.9616529733923
0
TEXT
8
1
10
         1.801299290
20
     12.9618339276106
40
0.001
1
718 
0
POINT
8
3
10
      1.8002992900909
20
     12.9618339276106
0
TEXT
8
1
10
         1.767503317
20
     12.9562042431090
40
0.001
1
719 
0
POINT
8
3
10
      1.7665033174002
20
     12.9562042431090
0
TEXT
8
1
10
         2.072566023
20
      6.8691089014075
40
0.001
1
720 
0
POINT
8
3
10
      2.0715660233210
20
      6.8691089014075
0
TEXT
8
1
10
         2.094192431
20
      6.8660490603880
40
0.001
1
721 
0
POINT
8
3
10
      2.0931924308360
20
      6.8660490603880
0
TEXT
8
1
10
         2.054567557
20
      6.8644817113830
40
0.001
1
722 
0
POINT
8
3
10
      2.0535675573640
20
      6.8644817113830
0
TEXT
8
1
10
        -0.299003651
20
     38.7363422454073
40
0.001
1
723 
0
POINT
8
3
10
     -0.3000036511188
20
     38.7363422454073
0
TEXT
8
1
10
        -2.246062896
20
     14.3820531558681
40
0.001
1
724 
0
POINT
8
3
10
     -2.2470628959015
20
     14.3820531558681
0
TEXT
8
1
10
        -2.227097067
20
     14.3765318093707
40
0.001
1
725 
0
POINT
8
3
10
     -2.2280970665396
20
     14.3765318093707
0
TEXT
8
1
10
        -2.266120177
20
     14.3806552239148
40
0.001
1
726 
0
POINT
8
3
10
     -2.2671201765578
20
     14.3806552239148
0
TEXT
8
1
10
        -2.425980747
20
     18.9543640767436
40
0.001
1
727 
0
POINT
8
3
10
     -2.4269807467891
20
     18.9543640767436
0
TEXT
8
1
10
        -2.405049432
20
     18.9460908340226
40
0.001
1
728 
0
POINT
8
3
10
     -2.4060494317893
20
     18.9460908340226
0
TEXT
8
1
10
        -2.443037291
20
     18.9541937382947
40
0.001
1
729 
0
POINT
8
3
10
     -2.4440372909138
20
     18.9541937382947
0
TEXT
8
1
10
        -2.496798717
20
     26.5529909505149
40
0.001
1
730 
0
POINT
8
3
10
     -2.4977987165965
20
     26.5529909505149
0
TEXT
8
1
10
        -2.475918056
20
     26.5431477685035
40
0.001
1
731 
0
POINT
8
3
10
     -2.4769180560475
20
     26.5431477685035
0
TEXT
8
1
10
        -2.515973224
20
     26.5534162087376
40
0.001
1
732 
0
POINT
8
3
10
     -2.5169732238301
20
     26.5534162087376
0
TEXT
8
1
10
        -2.487352900
20
     29.5966757383827
40
0.001
1
733 
0
POINT
8
3
10
     -2.4883529001490
20
     29.5966757383827
0
TEXT
8
1
10
        -2.466647387
20
     29.5886598115312
40
0.001
1
734 
0
POINT
8
3
10
     -2.4676473872114
20
     29.5886598115312
0
TEXT
8
1
10
        -2.503271222
20
     29.5974157355718
40
0.001
1
735 
0
POINT
8
3
10
     -2.5042712223301
20
     29.5974157355718
0
TEXT
8
1
10
        -2.767880038
20
     37.1659528984322
40
0.001
1
736 
0
POINT
8
3
10
     -2.7688800379343
20
     37.1659528984322
0
TEXT
8
1
10
        -2.776869761
20
     37.1745426906714
40
0.001
1
737 
0
POINT
8
3
10
     -2.7778697612598
20
     37.1745426906714
0
TEXT
8
1
10
        -2.781116444
20
     37.1775368092642
40
0.001
1
738 
0
POINT
8
3
10
     -2.7821164441910
20
     37.1775368092642
0
TEXT
8
1
10
        -2.767040987
20
     37.1646345677909
40
0.001
1
739 
0
POINT
8
3
10
     -2.7680409868554
20
     37.1646345677909
0
TEXT
8
1
10
        -2.760382686
20
     37.1505318661809
40
0.001
1
740 
0
POINT
8
3
10
     -2.7613826857117
20
     37.1505318661809
0
TEXT
8
1
10
        -2.759135241
20
     37.1412328867654
40
0.001
1
741 
0
POINT
8
3
10
     -2.7601352405701
20
     37.1412328867654
0
TEXT
8
1
10
        -3.408386268
20
     39.0483705767854
40
0.001
1
742 
0
POINT
8
3
10
     -3.4093862678408
20
     39.0483705767854
0
TEXT
8
1
10
        -3.409695153
20
     39.0552847376119
40
0.001
1
743 
0
POINT
8
3
10
     -3.4106951529395
20
     39.0552847376119
0
TEXT
8
1
10
        -3.412168081
20
     39.0605399631247
40
0.001
1
744 
0
POINT
8
3
10
     -3.4131680808867
20
     39.0605399631247
0
TEXT
8
1
10
        -3.408430349
20
     39.0479309950574
40
0.001
1
745 
0
POINT
8
3
10
     -3.4094303487348
20
     39.0479309950574
0
TEXT
8
1
10
        -3.408851880
20
     39.0333556013692
40
0.001
1
746 
0
POINT
8
3
10
     -3.4098518797460
20
     39.0333556013692
0
TEXT
8
1
10
        -3.410708460
20
     39.0242920975636
40
0.001
1
747 
0
POINT
8
3
10
     -3.4117084602867
20
     39.0242920975636
0
TEXT
8
1
10
        -3.414402321
20
     39.0168276383807
40
0.001
1
748 
0
POINT
8
3
10
     -3.4154023214658
20
     39.0168276383807
0
TEXT
8
1
10
        -2.970251603
20
     45.3664495109855
40
0.001
1
749 
0
POINT
8
3
10
     -2.9712516029163
20
     45.3664495109855
0
TEXT
8
1
10
        -2.988241272
20
     45.3613316780152
40
0.001
1
750 
0
POINT
8
3
10
     -2.9892412720663
20
     45.3613316780152
0
TEXT
8
1
10
        -2.960185167
20
     45.3715738096005
40
0.001
1
751 
0
POINT
8
3
10
     -2.9611851665562
20
     45.3715738096005
0
TEXT
8
1
10
        -3.073510032
20
     49.9038451806197
40
0.001
1
752 
0
POINT
8
3
10
     -3.0745100320487
20
     49.9038451806197
0
TEXT
8
1
10
        -3.092866624
20
     49.9010800004418
40
0.001
1
753 
0
POINT
8
3
10
     -3.0938666242558
20
     49.9010800004418
0
TEXT
8
1
10
        -3.061030739
20
     49.9110586086988
40
0.001
1
754 
0
POINT
8
3
10
     -3.0620307394913
20
     49.9110586086988
0
TEXT
8
1
10
        -3.144753948
20
     52.9472073972365
40
0.001
1
755 
0
POINT
8
3
10
     -3.1457539475707
20
     52.9472073972365
0
TEXT
8
1
10
        -3.166187110
20
     52.9479993295975
40
0.001
1
756 
0
POINT
8
3
10
     -3.1671871103949
20
     52.9479993295975
0
TEXT
8
1
10
        -3.125440841
20
     52.9551395182573
40
0.001
1
757 
0
POINT
8
3
10
     -3.1264408413723
20
     52.9551395182573
0
TEXT
8
1
10
         7.332037480
20
     39.3415016248665
40
0.001
1
758 
0
POINT
8
3
10
      7.3310374799674
20
     39.3415016248665
0
TEXT
8
1
10
         7.334439859
20
     39.3614844534083
40
0.001
1
759 
0
POINT
8
3
10
      7.3334398588207
20
     39.3614844534083
0
TEXT
8
1
10
         7.336652399
20
     39.3208953144258
40
0.001
1
760 
0
POINT
8
3
10
      7.3356523988855
20
     39.3208953144258
0
TEXT
8
1
10
         1.273871594
20
     38.7561333297128
40
0.001
1
761 
0
POINT
8
3
10
      1.2728715940433
20
     38.7561333297128
0
TEXT
8
1
10
         1.272947657
20
     38.7486836372374
40
0.001
1
762 
0
POINT
8
3
10
      1.2719476569362
20
     38.7486836372374
0
TEXT
8
1
10
         1.273988708
20
     38.7411653609317
40
0.001
1
763 
0
POINT
8
3
10
      1.2729887078640
20
     38.7411653609317
0
TEXT
8
1
10
         1.275993294
20
     38.7333684945745
40
0.001
1
764 
0
POINT
8
3
10
      1.2749932944950
20
     38.7333684945745
0
TEXT
8
1
10
         1.276984047
20
     38.7301780803134
40
0.001
1
765 
0
POINT
8
3
10
      1.2759840467923
20
     38.7301780803134
0
TEXT
8
1
10
         1.280446763
20
     38.7780028453842
40
0.001
1
766 
0
POINT
8
3
10
      1.2794467632178
20
     38.7780028453842
0
TEXT
8
1
10
         1.278560080
20
     38.7734352954722
40
0.001
1
767 
0
POINT
8
3
10
      1.2775600796244
20
     38.7734352954722
0
TEXT
8
1
10
         1.277649894
20
     38.7693849470628
40
0.001
1
768 
0
POINT
8
3
10
      1.2766498935056
20
     38.7693849470628
0
TEXT
8
1
10
         1.275751933
20
     38.7640743951303
40
0.001
1
769 
0
POINT
8
3
10
      1.2747519330143
20
     38.7640743951303
0
TEXT
8
1
10
         1.273807747
20
     38.7606842085026
40
0.001
1
770 
0
POINT
8
3
10
      1.2728077465683
20
     38.7606842085026
0
TEXT
8
1
10
         1.504230306
20
     32.7134937583347
40
0.001
1
771 
0
POINT
8
3
10
      1.5032303057716
20
     32.7134937583347
0
TEXT
8
1
10
         1.523791299
20
     32.7152055457341
40
0.001
1
772 
0
POINT
8
3
10
      1.5227912988365
20
     32.7152055457341
0
TEXT
8
1
10
         1.486643327
20
     32.7030416189114
40
0.001
1
773 
0
POINT
8
3
10
      1.4856433274610
20
     32.7030416189114
0
TEXT
8
1
10
         1.652807838
20
     19.0177080698077
40
0.001
1
774 
0
POINT
8
3
10
      1.6518078379445
20
     19.0177080698077
0
TEXT
8
1
10
         1.671503807
20
     19.0165526633971
40
0.001
1
775 
0
POINT
8
3
10
      1.6705038073568
20
     19.0165526633971
0
TEXT
8
1
10
         1.634577253
20
     19.0128976758439
40
0.001
1
776 
0
POINT
8
3
10
      1.6335772533246
20
     19.0128976758439
0
TEXT
8
1
10
         0.348899500
20
     48.0854509804638
40
0.001
1
777 
0
POINT
8
3
10
      0.3478995000507
20
     48.0854509804638
0
TEXT
8
1
10
        -2.500624200
20
     26.5521765501405
40
0.001
1
778 
0
POINT
8
3
10
     -2.5016241996837
20
     26.5521765501405
0
TEXT
8
1
10
        -2.479553270
20
     26.5433471869364
40
0.001
1
779 
0
POINT
8
3
10
     -2.4805532702957
20
     26.5433471869364
0
TEXT
8
1
10
        -2.515766563
20
     26.5511593433056
40
0.001
1
780 
0
POINT
8
3
10
     -2.5167665628432
20
     26.5511593433056
0
TEXT
8
1
10
        -2.487929954
20
     29.5978360744262
40
0.001
1
781 
0
POINT
8
3
10
     -2.4889299537006
20
     29.5978360744262
0
TEXT
8
1
10
        -2.465191289
20
     29.5882921926533
40
0.001
1
782 
0
POINT
8
3
10
     -2.4661912894809
20
     29.5882921926533
0
TEXT
8
1
10
        -2.504728803
20
     29.5983978959980
40
0.001
1
783 
0
POINT
8
3
10
     -2.5057288030560
20
     29.5983978959980
0
TEXT
8
1
10
        -2.793524038
20
     37.1833021130636
40
0.001
1
784 
0
POINT
8
3
10
     -2.7945240380739
20
     37.1833021130636
0
TEXT
8
1
10
        -2.774173579
20
     37.1715021936638
40
0.001
1
785 
0
POINT
8
3
10
     -2.7751735788740
20
     37.1715021936638
0
TEXT
8
1
10
        -2.810380371
20
     37.1860925450003
40
0.001
1
786 
0
POINT
8
3
10
     -2.8113803705796
20
     37.1860925450003
0
TEXT
8
1
10
        -3.439335470
20
     39.0862875799844
40
0.001
1
787 
0
POINT
8
3
10
     -3.4403354698168
20
     39.0862875799844
0
TEXT
8
1
10
        -3.420871325
20
     39.0731172655524
40
0.001
1
788 
0
POINT
8
3
10
     -3.4218713253300
20
     39.0731172655524
0
TEXT
8
1
10
        -3.455878401
20
     39.0900119028119
40
0.001
1
789 
0
POINT
8
3
10
     -3.4568784011322
20
     39.0900119028119
0
TEXT
8
1
10
        -2.962807084
20
     45.4506041382108
40
0.001
1
790 
0
POINT
8
3
10
     -2.9638070841718
20
     45.4506041382108
0
TEXT
8
1
10
        -2.969689138
20
     45.4544456920325
40
0.001
1
791 
0
POINT
8
3
10
     -2.9706891376675
20
     45.4544456920325
0
TEXT
8
1
10
        -2.958587333
20
     45.4469123256293
40
0.001
1
792 
0
POINT
8
3
10
     -2.9595873331373
20
     45.4469123256293
0
TEXT
8
1
10
        -2.950092675
20
     45.4378964448944
40
0.001
1
793 
0
POINT
8
3
10
     -2.9510926746305
20
     45.4378964448944
0
TEXT
8
1
10
        -2.941994297
20
     45.4230645700656
40
0.001
1
794 
0
POINT
8
3
10
     -2.9429942966533
20
     45.4230645700656
0
TEXT
8
1
10
        -3.044230613
20
     49.9298227864564
40
0.001
1
795 
0
POINT
8
3
10
     -3.0452306128045
20
     49.9298227864564
0
TEXT
8
1
10
        -3.056417410
20
     49.9135748970852
40
0.001
1
796 
0
POINT
8
3
10
     -3.0574174102691
20
     49.9135748970852
0
TEXT
8
1
10
        -3.039089966
20
     49.9517164191587
40
0.001
1
797 
0
POINT
8
3
10
     -3.0400899655896
20
     49.9517164191587
0
TEXT
8
1
10
        -3.121462597
20
     52.9591420545738
40
0.001
1
798 
0
POINT
8
3
10
     -3.1224625971511
20
     52.9591420545738
0
TEXT
8
1
10
        -3.107064213
20
     52.9767109984803
40
0.001
1
799 
0
POINT
8
3
10
     -3.1080642128918
20
     52.9767109984803
0
TEXT
8
1
10
         2.320283197
20
      0.7482597073205
40
0.001
1
8   
0
POINT
8
3
10
      2.3192831969139
20
      0.7482597073205
0
TEXT
8
1
10
        -3.147878649
20
     52.9476163752253
40
0.001
1
800 
0
POINT
8
3
10
     -3.1488786489038
20
     52.9476163752253
0
TEXT
8
1
10
        -3.245872292
20
     57.5112309398862
40
0.001
1
801 
0
POINT
8
3
10
     -3.2468722916525
20
     57.5112309398862
0
TEXT
8
1
10
        -3.267134410
20
     57.5063080444527
40
0.001
1
802 
0
POINT
8
3
10
     -3.2681344100193
20
     57.5063080444527
0
TEXT
8
1
10
        -3.229190961
20
     57.5218539342385
40
0.001
1
803 
0
POINT
8
3
10
     -3.2301909608721
20
     57.5218539342385
0
TEXT
8
1
10
        -3.312625152
20
     60.5570662820077
40
0.001
1
804 
0
POINT
8
3
10
     -3.3136251516918
20
     60.5570662820077
0
TEXT
8
1
10
        -3.333795778
20
     60.5529167404428
40
0.001
1
805 
0
POINT
8
3
10
     -3.3347957782020
20
     60.5529167404428
0
TEXT
8
1
10
        -3.297019268
20
     60.5668464274740
40
0.001
1
806 
0
POINT
8
3
10
     -3.2980192675024
20
     60.5668464274740
0
TEXT
8
1
10
        -3.387261347
20
     63.5978640185204
40
0.001
1
807 
0
POINT
8
3
10
     -3.3882613472173
20
     63.5978640185204
0
TEXT
8
1
10
        -3.411868039
20
     63.5980907169498
40
0.001
1
808 
0
POINT
8
3
10
     -3.4128680394085
20
     63.5980907169498
0
TEXT
8
1
10
        -3.371329677
20
     63.6058058400599
40
0.001
1
809 
0
POINT
8
3
10
     -3.3723296773109
20
     63.6058058400599
0
TEXT
8
1
10
         7.349333073
20
     39.3812686147703
40
0.001
1
810 
0
POINT
8
3
10
      7.3483330728880
20
     39.3812686147703
0
TEXT
8
1
10
         7.371572715
20
     39.3914876874085
40
0.001
1
811 
0
POINT
8
3
10
      7.3705727147111
20
     39.3914876874085
0
TEXT
8
1
10
         7.339034595
20
     39.3691500911481
40
0.001
1
812 
0
POINT
8
3
10
      7.3380345952292
20
     39.3691500911481
0
TEXT
8
1
10
         1.314910298
20
     38.7975534904297
40
0.001
1
813 
0
POINT
8
3
10
      1.3139102984371
20
     38.7975534904297
0
TEXT
8
1
10
         1.338032010
20
     38.7959647997260
40
0.001
1
814 
0
POINT
8
3
10
      1.3370320100934
20
     38.7959647997260
0
TEXT
8
1
10
         1.297982798
20
     38.7917876812631
40
0.001
1
815 
0
POINT
8
3
10
      1.2969827975710
20
     38.7917876812631
0
TEXT
8
1
10
         1.510233938
20
     32.7132590815698
40
0.001
1
816 
0
POINT
8
3
10
      1.5092339382961
20
     32.7132590815698
0
TEXT
8
1
10
         1.537294853
20
     32.7113154958260
40
0.001
1
817 
0
POINT
8
3
10
      1.5362948531166
20
     32.7113154958260
0
TEXT
8
1
10
         1.492278252
20
     32.7058965517329
40
0.001
1
818 
0
POINT
8
3
10
      1.4912782516202
20
     32.7058965517329
0
TEXT
8
1
10
         0.791468420
20
     55.7880809366402
40
0.001
1
819 
0
POINT
8
3
10
      0.7904684195680
20
     55.7880809366402
0
TEXT
8
1
10
        -2.797705073
20
     37.1851608151874
40
0.001
1
820 
0
POINT
8
3
10
     -2.7987050730992
20
     37.1851608151874
0
TEXT
8
1
10
        -2.779066796
20
     37.1764832991213
40
0.001
1
821 
0
POINT
8
3
10
     -2.7800667959541
20
     37.1764832991213
0
TEXT
8
1
10
        -2.813352848
20
     37.1851308481151
40
0.001
1
822 
0
POINT
8
3
10
     -2.8143528483733
20
     37.1851308481151
0
TEXT
8
1
10
        -3.446585603
20
     39.0884627976337
40
0.001
1
823 
0
POINT
8
3
10
     -3.4475856032346
20
     39.0884627976337
0
TEXT
8
1
10
        -3.425613328
20
     39.0779976223410
40
0.001
1
824 
0
POINT
8
3
10
     -3.4266133277967
20
     39.0779976223410
0
TEXT
8
1
10
        -3.461122382
20
     39.0890629317071
40
0.001
1
825 
0
POINT
8
3
10
     -3.4621223822045
20
     39.0890629317071
0
TEXT
8
1
10
        -2.977239339
20
     45.4559558941868
40
0.001
1
826 
0
POINT
8
3
10
     -2.9782393385476
20
     45.4559558941868
0
TEXT
8
1
10
        -2.957690915
20
     45.4445916649132
40
0.001
1
827 
0
POINT
8
3
10
     -2.9586909151412
20
     45.4445916649132
0
TEXT
8
1
10
        -2.994139841
20
     45.4589409369699
40
0.001
1
828 
0
POINT
8
3
10
     -2.9951398413965
20
     45.4589409369699
0
TEXT
8
1
10
        -3.062032329
20
     49.9898087135093
40
0.001
1
829 
0
POINT
8
3
10
     -3.0630323294594
20
     49.9898087135093
0
TEXT
8
1
10
        -3.049170873
20
     49.9788838655045
40
0.001
1
830 
0
POINT
8
3
10
     -3.0501708730834
20
     49.9788838655045
0
TEXT
8
1
10
        -3.076147993
20
     49.9980121049485
40
0.001
1
831 
0
POINT
8
3
10
     -3.0771479931842
20
     49.9980121049485
0
TEXT
8
1
10
        -3.113151273
20
     53.0239185176453
40
0.001
1
832 
0
POINT
8
3
10
     -3.1141512728496
20
     53.0239185176453
0
TEXT
8
1
10
        -3.106089956
20
     53.0070783266316
40
0.001
1
833 
0
POINT
8
3
10
     -3.1070899561481
20
     53.0070783266316
0
TEXT
8
1
10
        -3.124178223
20
     53.0360816291880
40
0.001
1
834 
0
POINT
8
3
10
     -3.1251782226583
20
     53.0360816291880
0
TEXT
8
1
10
        -3.218870528
20
     57.5392381308112
40
0.001
1
835 
0
POINT
8
3
10
     -3.2198705280271
20
     57.5392381308112
0
TEXT
8
1
10
        -3.231780131
20
     57.5195153372652
40
0.001
1
836 
0
POINT
8
3
10
     -3.2327801308750
20
     57.5195153372652
0
TEXT
8
1
10
        -3.215488935
20
     57.5568903496949
40
0.001
1
837 
0
POINT
8
3
10
     -3.2164889351587
20
     57.5568903496949
0
TEXT
8
1
10
        -3.296719819
20
     60.5657004822697
40
0.001
1
838 
0
POINT
8
3
10
     -3.2977198191009
20
     60.5657004822697
0
TEXT
8
1
10
        -3.315127895
20
     60.5551679187045
40
0.001
1
839 
0
POINT
8
3
10
     -3.3161278945614
20
     60.5551679187045
0
TEXT
8
1
10
        -3.286676042
20
     60.5808436398216
40
0.001
1
840 
0
POINT
8
3
10
     -3.2876760419284
20
     60.5808436398216
0
TEXT
8
1
10
        -3.372693982
20
     63.6051248719175
40
0.001
1
841 
0
POINT
8
3
10
     -3.3736939820629
20
     63.6051248719175
0
TEXT
8
1
10
        -3.391432020
20
     63.5973831010339
40
0.001
1
842 
0
POINT
8
3
10
     -3.3924320199946
20
     63.5973831010339
0
TEXT
8
1
10
        -3.356358836
20
     63.6205948000557
40
0.001
1
843 
0
POINT
8
3
10
     -3.3573588356663
20
     63.6205948000557
0
TEXT
8
1
10
        -3.445693719
20
     39.0882364793806
40
0.001
1
844 
0
POINT
8
3
10
     -3.4466937194306
20
     39.0882364793806
0
TEXT
8
1
10
        -3.424388026
20
     39.0766571117641
40
0.001
1
845 
0
POINT
8
3
10
     -3.4253880259633
20
     39.0766571117641
0
TEXT
8
1
10
        -3.459863294
20
     39.0887423413810
40
0.001
1
846 
0
POINT
8
3
10
     -3.4608632938230
20
     39.0887423413810
0
TEXT
8
1
10
         7.363959049
20
     39.3891432265086
40
0.001
1
847 
0
POINT
8
3
10
      7.3629590489780
20
     39.3891432265086
0
TEXT
8
1
10
         7.386375794
20
     39.3927559090544
40
0.001
1
848 
0
POINT
8
3
10
      7.3853757941148
20
     39.3927559090544
0
TEXT
8
1
10
         7.348624256
20
     39.3808517247228
40
0.001
1
849 
0
POINT
8
3
10
      7.3476242557440
20
     39.3808517247228
0
TEXT
8
1
10
         1.321941234
20
     38.7993635932871
40
0.001
1
850 
0
POINT
8
3
10
      1.3209412343358
20
     38.7993635932871
0
TEXT
8
1
10
         1.343985642
20
     38.7950636046656
40
0.001
1
851 
0
POINT
8
3
10
      1.3429856423220
20
     38.7950636046656
0
TEXT
8
1
10
         1.303724859
20
     38.7958031997482
40
0.001
1
852 
0
POINT
8
3
10
      1.3027248591421
20
     38.7958031997482
0
TEXT
8
1
10
         1.303724859
20
     38.7958031997482
40
0.001
1
853 
0
POINT
8
3
10
      1.3027248591421
20
     38.7958031997482
0
TEXT
8
1
10
         1.520862451
20
     32.7146104091382
40
0.001
1
854 
0
POINT
8
3
10
      1.5198624509502
20
     32.7146104091382
0
TEXT
8
1
10
         1.542658577
20
     32.7093065520123
40
0.001
1
855 
0
POINT
8
3
10
      1.5416585772868
20
     32.7093065520123
0
TEXT
8
1
10
         1.504396888
20
     32.7120948297221
40
0.001
1
856 
0
POINT
8
3
10
      1.5033968878423
20
     32.7120948297221
0
TEXT
8
1
10
         1.457044981
20
     63.7317787085123
40
0.001
1
857 
0
POINT
8
3
10
      1.4560449805363
20
     63.7317787085123
0
TEXT
8
1
10
        -2.798148251
20
     37.1846489236048
40
0.001
1
858 
0
POINT
8
3
10
     -2.7991482512916
20
     37.1846489236048
0
TEXT
8
1
10
        -2.811900710
20
     37.1858440869765
40
0.001
1
859 
0
POINT
8
3
10
     -2.8129007100527
20
     37.1858440869765
0
TEXT
8
1
10
        -2.780169980
20
     37.1767101988159
40
0.001
1
860 
0
POINT
8
3
10
     -2.7811699795413
20
     37.1767101988159
0
TEXT
8
1
10
        -3.443709812
20
     39.0883560478071
40
0.001
1
861 
0
POINT
8
3
10
     -3.4447098120477
20
     39.0883560478071
0
TEXT
8
1
10
        -3.425790794
20
     39.0776633186462
40
0.001
1
862 
0
POINT
8
3
10
     -3.4267907942988
20
     39.0776633186462
0
TEXT
8
1
10
        -3.460280832
20
     39.0896178294119
40
0.001
1
863 
0
POINT
8
3
10
     -3.4612808321592
20
     39.0896178294119
0
TEXT
8
1
10
        -2.980501627
20
     45.4578602951265
40
0.001
1
864 
0
POINT
8
3
10
     -2.9815016272417
20
     45.4578602951265
0
TEXT
8
1
10
        -2.961460233
20
     45.4491316980301
40
0.001
1
865 
0
POINT
8
3
10
     -2.9624602325640
20
     45.4491316980301
0
TEXT
8
1
10
        -2.994752281
20
     45.4592682297345
40
0.001
1
866 
0
POINT
8
3
10
     -2.9957522806428
20
     45.4592682297345
0
TEXT
8
1
10
        -3.075526609
20
     49.9973657915512
40
0.001
1
867 
0
POINT
8
3
10
     -3.0765266087629
20
     49.9973657915512
0
TEXT
8
1
10
        -3.056015109
20
     49.9867318923869
40
0.001
1
868 
0
POINT
8
3
10
     -3.0570151090186
20
     49.9867318923869
0
TEXT
8
1
10
        -3.091383926
20
     50.0005022254574
40
0.001
1
869 
0
POINT
8
3
10
     -3.0923839255220
20
     50.0005022254574
0
TEXT
8
1
10
        -3.135004233
20
     53.0413032019313
40
0.001
1
870 
0
POINT
8
3
10
     -3.1360042330309
20
     53.0413032019313
0
TEXT
8
1
10
        -3.116910610
20
     53.0281116845543
40
0.001
1
871 
0
POINT
8
3
10
     -3.1179106095806
20
     53.0281116845543
0
TEXT
8
1
10
        -3.154047064
20
     53.0451464669079
40
0.001
1
872 
0
POINT
8
3
10
     -3.1550470636687
20
     53.0451464669079
0
TEXT
8
1
10
        -3.235235521
20
     57.5964171881723
40
0.001
1
873 
0
POINT
8
3
10
     -3.2362355205367
20
     57.5964171881723
0
TEXT
8
1
10
        -3.222145566
20
     57.5814013949623
40
0.001
1
874 
0
POINT
8
3
10
     -3.2231455656587
20
     57.5814013949623
0
TEXT
8
1
10
        -3.254457939
20
     57.6048575812164
40
0.001
1
875 
0
POINT
8
3
10
     -3.2554579390931
20
     57.6048575812164
0
TEXT
8
1
10
        -3.289126824
20
     60.6278966051589
40
0.001
1
876 
0
POINT
8
3
10
     -3.2901268242531
20
     60.6278966051589
0
TEXT
8
1
10
        -3.281908533
20
     60.6096104730719
40
0.001
1
877 
0
POINT
8
3
10
     -3.2829085334229
20
     60.6096104730719
0
TEXT
8
1
10
        -3.302913622
20
     60.6435656328690
40
0.001
1
878 
0
POINT
8
3
10
     -3.3039136223136
20
     60.6435656328690
0
TEXT
8
1
10
        -3.349235661
20
     63.6486634595484
40
0.001
1
879 
0
POINT
8
3
10
     -3.3502356612067
20
     63.6486634595484
0
TEXT
8
1
10
        -3.350859222
20
     63.6291584201892
40
0.001
1
880 
0
POINT
8
3
10
     -3.3518592221487
20
     63.6291584201892
0
TEXT
8
1
10
        -3.353518758
20
     63.6670465437233
40
0.001
1
881 
0
POINT
8
3
10
     -3.3545187584218
20
     63.6670465437233
0
TEXT
8
1
10
         7.367496384
20
     39.3900702970985
40
0.001
1
882 
0
POINT
8
3
10
      7.3664963843451
20
     39.3900702970985
0
TEXT
8
1
10
         7.392544754
20
     39.3899901438037
40
0.001
1
883 
0
POINT
8
3
10
      7.3915447539169
20
     39.3899901438037
0
TEXT
8
1
10
         7.351071069
20
     39.3830012525251
40
0.001
1
884 
0
POINT
8
3
10
      7.3500710692756
20
     39.3830012525251
0
TEXT
8
1
10
         1.323718424
20
     38.7971390680500
40
0.001
1
885 
0
POINT
8
3
10
      1.3227184237422
20
     38.7971390680500
0
TEXT
8
1
10
         1.342975021
20
     38.7940435072563
40
0.001
1
886 
0
POINT
8
3
10
      1.3419750214688
20
     38.7940435072563
0
TEXT
8
1
10
         1.305611050
20
     38.7952424273069
40
0.001
1
887 
0
POINT
8
3
10
      1.3046110500732
20
     38.7952424273069
0
ENDSEC
0
EOF