  0
SECTION
2
HEADER
  9
$PDSIZE
 40
2.0
  9
$PDMODE
 70
30
  9
$TEXTSIZE
 40
.02
  9
$TEXTSTYLE
  7
STANDARD
  0
ENDSEC
  0
SECTION
2
ENTITIES
0
POINT
8
1
10
0
20
0
0
TEXT
8
2
10
0
20
0
40
0.07
1
561
0
POINT
8
1
10
0.0
20
8.553163664903547
0
TEXT
8
2
10
0.0
20
8.553163664903547
40
0.07
1
562
0
POINT
8
1
10
-.1673147064685591
20
16.45492473576432
0
TEXT
8
2
10
-.1673147064685591
20
16.45492473576432
40
0.07
1
632
0
POINT
8
1
10
.1300758009773917
20
28.40175548970699
0
TEXT
8
2
10
.1300758009773917
20
28.40175548970699
40
0.07
1
675
0
POINT
8
1
10
-.3000036511188288
20
38.73634224540734
0
TEXT
8
2
10
-.3000036511188288
20
38.73634224540734
40
0.07
1
723
0
POINT
8
1
10
.3478995000506983
20
48.08545098046382
0
TEXT
8
2
10
.3478995000506983
20
48.08545098046382
40
0.07
1
777
0
POINT
8
1
10
.790468419567979
20
55.78808093664019
0
TEXT
8
2
10
.790468419567979
20
55.78808093664019
40
0.07
1
819
0
POINT
8
1
10
1.456044980536347
20
63.73177870851231
0
TEXT
8
2
10
1.456044980536347
20
63.73177870851231
40
0.07
1
857
0
POINT
8
1
10
2.319283196913868
20
.7482597073205223
0
TEXT
8
2
10
2.319283196913868
20
.7482597073205223
40
0.07
1
8
0
POINT
8
1
10
2.355545291985728
20
-.7661158220752735
0
TEXT
8
2
10
2.355545291985728
20
-.7661158220752735
40
0.07
1
14
0
POINT
8
1
10
12.42598073974608
20
-4.953693119777818
0
TEXT
8
2
10
12.42598073974608
20
-4.953693119777818
40
0.07
1
17
0
POINT
8
1
10
-10.6617636097702
20
-5.493886384441913
0
TEXT
8
2
10
-10.6617636097702
20
-5.493886384441913
40
0.07
1
6
0
POINT
8
1
10
-2.115151391655069
20
-.8671383691034961
0
TEXT
8
2
10
-2.115151391655069
20
-.8671383691034961
40
0.07
1
5
0
POINT
8
1
10
-2.142042974841594
20
.655171977445439
0
TEXT
8
2
10
-2.142042974841594
20
.655171977445439
40
0.07
1
7
0
POINT
8
1
10
-1.95926735905335
20
-.8457103447872789
0
TEXT
8
2
10
-1.95926735905335
20
-.8457103447872789
40
0.07
1
563
0
POINT
8
1
10
-1.960752582656475
20
-.8397242895596909
0
TEXT
8
2
10
-1.960752582656475
20
-.8397242895596909
40
0.07
1
564
0
POINT
8
1
10
-1.964728244479223
20
-.832945074346261
0
TEXT
8
2
10
-1.964728244479223
20
-.832945074346261
40
0.07
1
565
0
POINT
8
1
10
-1.968627524195766
20
-.8288547760809249
0
TEXT
8
2
10
-1.968627524195766
20
-.8288547760809249
40
0.07
1
566
0
POINT
8
1
10
-1.970523210096602
20
-.8243378235431714
0
TEXT
8
2
10
-1.970523210096602
20
-.8243378235431714
40
0.07
1
567
0
POINT
8
1
10
-1.956392716509067
20
-.8623051112931424
0
TEXT
8
2
10
-1.956392716509067
20
-.8623051112931424
40
0.07
1
568
0
POINT
8
1
10
-1.957449504765098
20
-.8673355742964881
0
TEXT
8
2
10
-1.957449504765098
20
-.8673355742964881
40
0.07
1
569
0
POINT
8
1
10
-1.95736941124346
20
-.8600857829893695
0
TEXT
8
2
10
-1.95736941124346
20
-.8600857829893695
40
0.07
1
570
0
POINT
8
1
10
-1.909351320848939
20
.6501271086847018
0
TEXT
8
2
10
-1.909351320848939
20
.6501271086847018
40
0.07
1
571
0
POINT
8
1
10
-1.908204347926626
20
.6596331464505394
0
TEXT
8
2
10
-1.908204347926626
20
.6596331464505394
40
0.07
1
572
0
POINT
8
1
10
-1.907520498270643
20
.6676865038962026
0
TEXT
8
2
10
-1.907520498270643
20
.6676865038962026
40
0.07
1
573
0
POINT
8
1
10
-1.907686476033047
20
.6732458877939176
0
TEXT
8
2
10
-1.907686476033047
20
.6732458877939176
40
0.07
1
574
0
POINT
8
1
10
-1.911487507818476
20
.6438192536172171
0
TEXT
8
2
10
-1.911487507818476
20
.6438192536172171
40
0.07
1
575
0
POINT
8
1
10
-1.912504510697716
20
.6407918698260821
0
TEXT
8
2
10
-1.912504510697716
20
.6407918698260821
40
0.07
1
576
0
POINT
8
1
10
-1.915115066829195
20
.6392917973399364
0
TEXT
8
2
10
-1.915115066829195
20
.6392917973399364
40
0.07
1
577
0
POINT
8
1
10
-1.916032928734189
20
.6365355742993535
0
TEXT
8
2
10
-1.916032928734189
20
.6365355742993535
40
0.07
1
578
0
POINT
8
1
10
-1.91827442694497
20
.6329470301726128
0
TEXT
8
2
10
-1.91827442694497
20
.6329470301726128
40
0.07
1
579
0
POINT
8
1
10
-1.921051627354365
20
.6309067780415493
0
TEXT
8
2
10
-1.921051627354365
20
.6309067780415493
40
0.07
1
580
0
POINT
8
1
10
-2.177587578157688
20
8.22564104664953
0
TEXT
8
2
10
-2.177587578157688
20
8.22564104664953
40
0.07
1
581
0
POINT
8
1
10
-2.199184003753698
20
8.222998904930539
0
TEXT
8
2
10
-2.199184003753698
20
8.222998904930539
40
0.07
1
582
0
POINT
8
1
10
-2.162685848348683
20
8.232673392902656
0
TEXT
8
2
10
-2.162685848348683
20
8.232673392902656
40
0.07
1
583
0
POINT
8
1
10
-2.244293047392475
20
14.28578328693539
0
TEXT
8
2
10
-2.244293047392475
20
14.28578328693539
40
0.07
1
584
0
POINT
8
1
10
-2.261702083675261
20
14.287087283707
0
TEXT
8
2
10
-2.261702083675261
20
14.287087283707
40
0.07
1
585
0
POINT
8
1
10
-2.22479976399456
20
14.29288023379798
0
TEXT
8
2
10
-2.22479976399456
20
14.29288023379798
40
0.07
1
586
0
POINT
8
1
10
1.781326154725049
20
12.86728115029468
0
TEXT
8
2
10
1.781326154725049
20
12.86728115029468
40
0.07
1
587
0
POINT
8
1
10
1.760738304267987
20
12.87516107290955
0
TEXT
8
2
10
1.760738304267987
20
12.87516107290955
40
0.07
1
588
0
POINT
8
1
10
1.796783801820529
20
12.8661414585571
0
TEXT
8
2
10
1.796783801820529
20
12.8661414585571
40
0.07
1
589
0
POINT
8
1
10
2.06418273318914
20
6.774500565477686
0
TEXT
8
2
10
2.06418273318914
20
6.774500565477686
40
0.07
1
590
0
POINT
8
1
10
2.046887895356887
20
6.782879860218931
0
TEXT
8
2
10
2.046887895356887
20
6.782879860218931
40
0.07
1
591
0
POINT
8
1
10
2.080590406125245
20
6.773663987224093
0
TEXT
8
2
10
2.080590406125245
20
6.773663987224093
40
0.07
1
592
0
POINT
8
1
10
2.12157755381547
20
3.752815456901733
0
TEXT
8
2
10
2.12157755381547
20
3.752815456901733
40
0.07
1
593
0
POINT
8
1
10
2.141815675657869
20
3.74821407682139
0
TEXT
8
2
10
2.141815675657869
20
3.74821407682139
40
0.07
1
594
0
POINT
8
1
10
2.10761557983156
20
3.760674372777503
0
TEXT
8
2
10
2.10761557983156
20
3.760674372777503
40
0.07
1
595
0
POINT
8
1
10
2.101357582938065
20
3.767610180330035
0
TEXT
8
2
10
2.101357582938065
20
3.767610180330035
40
0.07
1
596
0
POINT
8
1
10
2.096193895407881
20
3.775061496760276
0
TEXT
8
2
10
2.096193895407881
20
3.775061496760276
40
0.07
1
597
0
POINT
8
1
10
-1.988619315518324
20
-.8150962294363124
0
TEXT
8
2
10
-1.988619315518324
20
-.8150962294363124
40
0.07
1
598
0
POINT
8
1
10
-1.974519500247219
20
-.8221659265857606
0
TEXT
8
2
10
-1.974519500247219
20
-.8221659265857606
40
0.07
1
599
0
POINT
8
1
10
-2.013490281838424
20
-.8118280117010781
0
TEXT
8
2
10
-2.013490281838424
20
-.8118280117010781
40
0.07
1
600
0
POINT
8
1
10
-1.945039534535988
20
.7128266351302148
0
TEXT
8
2
10
-1.945039534535988
20
.7128266351302148
40
0.07
1
601
0
POINT
8
1
10
-1.925056637792718
20
.7017184194589052
0
TEXT
8
2
10
-1.925056637792718
20
.7017184194589052
40
0.07
1
602
0
POINT
8
1
10
-1.961256816580204
20
.7137751545952028
0
TEXT
8
2
10
-1.961256816580204
20
.7137751545952028
40
0.07
1
603
0
POINT
8
1
10
-2.144433549714517
20
8.286097594397693
0
TEXT
8
2
10
-2.144433549714517
20
8.286097594397693
40
0.07
1
604
0
POINT
8
1
10
-2.145060971584116
20
8.291184728072264
0
TEXT
8
2
10
-2.145060971584116
20
8.291184728072264
40
0.07
1
605
0
POINT
8
1
10
-2.14755127711628
20
8.295111258210252
0
TEXT
8
2
10
-2.14755127711628
20
8.295111258210252
40
0.07
1
606
0
POINT
8
1
10
-2.144158061014917
20
8.283894757412556
0
TEXT
8
2
10
-2.144158061014917
20
8.283894757412556
40
0.07
1
607
0
POINT
8
1
10
-2.142558650103314
20
8.27145110568031
0
TEXT
8
2
10
-2.142558650103314
20
8.27145110568031
40
0.07
1
608
0
POINT
8
1
10
-2.14330354108211
20
8.261929286388825
0
TEXT
8
2
10
-2.14330354108211
20
8.261929286388825
40
0.07
1
609
0
POINT
8
1
10
-2.144622337662807
20
8.256821702760987
0
TEXT
8
2
10
-2.144622337662807
20
8.256821702760987
40
0.07
1
610
0
POINT
8
1
10
-2.229402230449529
20
14.28699814308031
0
TEXT
8
2
10
-2.229402230449529
20
14.28699814308031
40
0.07
1
611
0
POINT
8
1
10
-2.25110362938993
20
14.28388522145331
0
TEXT
8
2
10
-2.25110362938993
20
14.28388522145331
40
0.07
1
612
0
POINT
8
1
10
-2.211255488370246
20
14.30259296375735
0
TEXT
8
2
10
-2.211255488370246
20
14.30259296375735
40
0.07
1
613
0
POINT
8
1
10
-2.420322210268406
20
18.85876414458713
0
TEXT
8
2
10
-2.420322210268406
20
18.85876414458713
40
0.07
1
614
0
POINT
8
1
10
-2.441409965617478
20
18.85789957620118
0
TEXT
8
2
10
-2.441409965617478
20
18.85789957620118
40
0.07
1
615
0
POINT
8
1
10
-2.404682957428568
20
18.86550509169403
0
TEXT
8
2
10
-2.404682957428568
20
18.86550509169403
40
0.07
1
616
0
POINT
8
1
10
-2.501240311969154
20
26.45628136544111
0
TEXT
8
2
10
-2.501240311969154
20
26.45628136544111
40
0.07
1
617
0
POINT
8
1
10
-2.520611479813086
20
26.45659392927832
0
TEXT
8
2
10
-2.520611479813086
20
26.45659392927832
40
0.07
1
618
0
POINT
8
1
10
-2.483002647736849
20
26.46285814313196
0
TEXT
8
2
10
-2.483002647736849
20
26.46285814313196
40
0.07
1
619
0
POINT
8
1
10
1.647303520352313
20
18.92009983470732
0
TEXT
8
2
10
1.647303520352313
20
18.92009983470732
40
0.07
1
620
0
POINT
8
1
10
1.627948043279656
20
18.92821810198475
0
TEXT
8
2
10
1.627948043279656
20
18.92821810198475
40
0.07
1
621
0
POINT
8
1
10
1.662697810621423
20
18.91966753141196
0
TEXT
8
2
10
1.662697810621423
20
18.91966753141196
40
0.07
1
622
0
POINT
8
1
10
1.772591071927803
20
12.86826958080277
0
TEXT
8
2
10
1.772591071927803
20
12.86826958080277
40
0.07
1
623
0
POINT
8
1
10
1.756921904740367
20
12.87467307648072
0
TEXT
8
2
10
1.756921904740367
20
12.87467307648072
40
0.07
1
624
0
POINT
8
1
10
1.791910525504084
20
12.86461479307175
0
TEXT
8
2
10
1.791910525504084
20
12.86461479307175
40
0.07
1
625
0
POINT
8
1
10
2.038533858385539
20
6.855286607978062
0
TEXT
8
2
10
2.038533858385539
20
6.855286607978062
40
0.07
1
626
0
POINT
8
1
10
2.047885182591148
20
6.863433192960814
0
TEXT
8
2
10
2.047885182591148
20
6.863433192960814
40
0.07
1
627
0
POINT
8
1
10
2.029768381094208
20
6.841713078997431
0
TEXT
8
2
10
2.029768381094208
20
6.841713078997431
40
0.07
1
628
0
POINT
8
1
10
2.122387891521571
20
3.842181785992463
0
TEXT
8
2
10
2.122387891521571
20
3.842181785992463
40
0.07
1
629
0
POINT
8
1
10
2.141050090158582
20
3.84733790025708
0
TEXT
8
2
10
2.141050090158582
20
3.84733790025708
40
0.07
1
630
0
POINT
8
1
10
2.107332912925879
20
3.832142630224935
0
TEXT
8
2
10
2.107332912925879
20
3.832142630224935
40
0.07
1
631
0
POINT
8
1
10
-2.000064995668478
20
-.8130849002790379
0
TEXT
8
2
10
-2.000064995668478
20
-.8130849002790379
40
0.07
1
633
0
POINT
8
1
10
-1.977849913090905
20
-.8214611308819335
0
TEXT
8
2
10
-1.977849913090905
20
-.8214611308819335
40
0.07
1
634
0
POINT
8
1
10
-2.015957153615166
20
-.8123964955315781
0
TEXT
8
2
10
-2.015957153615166
20
-.8123964955315781
40
0.07
1
635
0
POINT
8
1
10
-1.950415701975684
20
.7115830289684983
0
TEXT
8
2
10
-1.950415701975684
20
.7115830289684983
40
0.07
1
636
0
POINT
8
1
10
-1.928626176776517
20
.7030929977718483
0
TEXT
8
2
10
-1.928626176776517
20
.7030929977718483
40
0.07
1
637
0
POINT
8
1
10
-1.974739362868956
20
.7083175675867504
0
TEXT
8
2
10
-1.974739362868956
20
.7083175675867504
40
0.07
1
638
0
POINT
8
1
10
-2.174106865828795
20
8.318760823858229
0
TEXT
8
2
10
-2.174106865828795
20
8.318760823858229
40
0.07
1
639
0
POINT
8
1
10
-2.160211094590682
20
8.310198409349869
0
TEXT
8
2
10
-2.160211094590682
20
8.310198409349869
40
0.07
1
640
0
POINT
8
1
10
-2.190958459638842
20
8.321905313233097
0
TEXT
8
2
10
-2.190958459638842
20
8.321905313233097
40
0.07
1
641
0
POINT
8
1
10
-2.219385482696912
20
14.3705476476027
0
TEXT
8
2
10
-2.219385482696912
20
14.3705476476027
40
0.07
1
642
0
POINT
8
1
10
-2.22774923958946
20
14.37599812634418
0
TEXT
8
2
10
-2.22774923958946
20
14.37599812634418
40
0.07
1
643
0
POINT
8
1
10
-2.221198574524995
20
14.37233419203253
0
TEXT
8
2
10
-2.221198574524995
20
14.37233419203253
40
0.07
1
644
0
POINT
8
1
10
-2.213135799639377
20
14.36441322633872
0
TEXT
8
2
10
-2.213135799639377
20
14.36441322633872
40
0.07
1
645
0
POINT
8
1
10
-2.207899795402814
20
14.35651133334538
0
TEXT
8
2
10
-2.207899795402814
20
14.35651133334538
40
0.07
1
646
0
POINT
8
1
10
-2.203997589718634
20
14.34854866768036
0
TEXT
8
2
10
-2.203997589718634
20
14.34854866768036
40
0.07
1
647
0
POINT
8
1
10
-2.202989374379023
20
14.34479441991396
0
TEXT
8
2
10
-2.202989374379023
20
14.34479441991396
40
0.07
1
648
0
POINT
8
1
10
-2.398136700807374
20
18.87173065192198
0
TEXT
8
2
10
-2.398136700807374
20
18.87173065192198
40
0.07
1
649
0
POINT
8
1
10
-2.411522257710989
20
18.86204128251043
0
TEXT
8
2
10
-2.411522257710989
20
18.86204128251043
40
0.07
1
650
0
POINT
8
1
10
-2.388620454574071
20
18.88590115933889
0
TEXT
8
2
10
-2.388620454574071
20
18.88590115933889
40
0.07
1
651
0
POINT
8
1
10
-2.496877365248959
20
26.45619794175733
0
TEXT
8
2
10
-2.496877365248959
20
26.45619794175733
40
0.07
1
652
0
POINT
8
1
10
-2.517048364682231
20
26.45558709541737
0
TEXT
8
2
10
-2.517048364682231
20
26.45558709541737
40
0.07
1
653
0
POINT
8
1
10
-2.477506263711018
20
26.46479540751474
0
TEXT
8
2
10
-2.477506263711018
20
26.46479540751474
40
0.07
1
654
0
POINT
8
1
10
-2.48727150716696
20
29.50023980950265
0
TEXT
8
2
10
-2.48727150716696
20
29.50023980950265
40
0.07
1
655
0
POINT
8
1
10
-2.507933926065949
20
29.50061224412538
0
TEXT
8
2
10
-2.507933926065949
20
29.50061224412538
40
0.07
1
656
0
POINT
8
1
10
-2.471366845062887
20
29.50712013116028
0
TEXT
8
2
10
-2.471366845062887
20
29.50712013116028
40
0.07
1
657
0
POINT
8
1
10
1.510284008326302
20
32.61708983615155
0
TEXT
8
2
10
1.510284008326302
20
32.61708983615155
40
0.07
1
658
0
POINT
8
1
10
1.491346228559255
20
32.62407057070847
0
TEXT
8
2
10
1.491346228559255
20
32.62407057070847
40
0.07
1
659
0
POINT
8
1
10
1.526336076910667
20
32.61843203379314
0
TEXT
8
2
10
1.526336076910667
20
32.61843203379314
40
0.07
1
660
0
POINT
8
1
10
1.636499602101926
20
18.925497949611
0
TEXT
8
2
10
1.636499602101926
20
18.925497949611
40
0.07
1
661
0
POINT
8
1
10
1.645718783311345
20
18.92246412227
0
TEXT
8
2
10
1.645718783311345
20
18.92246412227
40
0.07
1
662
0
POINT
8
1
10
1.629650401572072
20
18.92924837409129
0
TEXT
8
2
10
1.629650401572072
20
18.92924837409129
40
0.07
1
663
0
POINT
8
1
10
1.61714180500025
20
18.93951585372657
0
TEXT
8
2
10
1.61714180500025
20
18.93951585372657
40
0.07
1
664
0
POINT
8
1
10
1.609185905642055
20
18.95503105841908
0
TEXT
8
2
10
1.609185905642055
20
18.95503105841908
40
0.07
1
665
0
POINT
8
1
10
1.766963414634648
20
12.95712941028762
0
TEXT
8
2
10
1.766963414634648
20
12.95712941028762
40
0.07
1
666
0
POINT
8
1
10
1.785700589573043
20
12.96411877802228
0
TEXT
8
2
10
1.785700589573043
20
12.96411877802228
40
0.07
1
667
0
POINT
8
1
10
1.749814291881372
20
12.94428214716809
0
TEXT
8
2
10
1.749814291881372
20
12.94428214716809
40
0.07
1
668
0
POINT
8
1
10
2.059930445374239
20
6.868251034769122
0
TEXT
8
2
10
2.059930445374239
20
6.868251034769122
40
0.07
1
669
0
POINT
8
1
10
2.079537159907392
20
6.870773114782259
0
TEXT
8
2
10
2.079537159907392
20
6.870773114782259
40
0.07
1
670
0
POINT
8
1
10
2.049115304985449
20
6.863692092994354
0
TEXT
8
2
10
2.049115304985449
20
6.863692092994354
40
0.07
1
671
0
POINT
8
1
10
2.12975294889973
20
3.844430984554638
0
TEXT
8
2
10
2.12975294889973
20
3.844430984554638
40
0.07
1
672
0
POINT
8
1
10
2.154837550049426
20
3.844958783073747
0
TEXT
8
2
10
2.154837550049426
20
3.844958783073747
40
0.07
1
673
0
POINT
8
1
10
2.115805906300954
20
3.839865928366684
0
TEXT
8
2
10
2.115805906300954
20
3.839865928366684
40
0.07
1
674
0
POINT
8
1
10
-2.18817460165403
20
8.321133415160572
0
TEXT
8
2
10
-2.18817460165403
20
8.321133415160572
40
0.07
1
676
0
POINT
8
1
10
-2.167948639274443
20
8.315789133466624
0
TEXT
8
2
10
-2.167948639274443
20
8.315789133466624
40
0.07
1
677
0
POINT
8
1
10
-2.205616424240177
20
8.320134473935558
0
TEXT
8
2
10
-2.205616424240177
20
8.320134473935558
40
0.07
1
678
0
POINT
8
1
10
-2.247227865411125
20
14.38289944298473
0
TEXT
8
2
10
-2.247227865411125
20
14.38289944298473
40
0.07
1
679
0
POINT
8
1
10
-2.225172351700696
20
14.37613512219781
0
TEXT
8
2
10
-2.225172351700696
20
14.37613512219781
40
0.07
1
680
0
POINT
8
1
10
-2.259366196996567
20
14.38293440869515
0
TEXT
8
2
10
-2.259366196996567
20
14.38293440869515
40
0.07
1
681
0
POINT
8
1
10
-2.415929348337622
20
18.95275428639431
0
TEXT
8
2
10
-2.415929348337622
20
18.95275428639431
40
0.07
1
682
0
POINT
8
1
10
-2.401188487961218
20
18.94361867374884
0
TEXT
8
2
10
-2.401188487961218
20
18.94361867374884
40
0.07
1
683
0
POINT
8
1
10
-2.438765546202229
20
18.9558280564084
0
TEXT
8
2
10
-2.438765546202229
20
18.9558280564084
40
0.07
1
684
0
POINT
8
1
10
-2.480805321110652
20
26.54635646301382
0
TEXT
8
2
10
-2.480805321110652
20
26.54635646301382
40
0.07
1
685
0
POINT
8
1
10
-2.471470336063442
20
26.53843735133046
0
TEXT
8
2
10
-2.471470336063442
20
26.53843735133046
40
0.07
1
686
0
POINT
8
1
10
-2.461754773180759
20
26.52324223162062
0
TEXT
8
2
10
-2.461754773180759
20
26.52324223162062
40
0.07
1
687
0
POINT
8
1
10
-2.457943609185034
20
26.51290178638784
0
TEXT
8
2
10
-2.457943609185034
20
26.51290178638784
40
0.07
1
688
0
POINT
8
1
10
-2.447594484852021
20
29.53802236345523
0
TEXT
8
2
10
-2.447594484852021
20
29.53802236345523
40
0.07
1
689
0
POINT
8
1
10
-2.447555321454884
20
29.54552788935188
0
TEXT
8
2
10
-2.447555321454884
20
29.54552788935188
40
0.07
1
690
0
POINT
8
1
10
-2.45143844537433
20
29.52926190064601
0
TEXT
8
2
10
-2.45143844537433
20
29.52926190064601
40
0.07
1
691
0
POINT
8
1
10
-2.45798117230482
20
29.51669163680387
0
TEXT
8
2
10
-2.45798117230482
20
29.51669163680387
40
0.07
1
692
0
POINT
8
1
10
-2.793587628095545
20
37.09108168845877
0
TEXT
8
2
10
-2.793587628095545
20
37.09108168845877
40
0.07
1
693
0
POINT
8
1
10
-2.811141790680152
20
37.08832291856399
0
TEXT
8
2
10
-2.811141790680152
20
37.08832291856399
40
0.07
1
694
0
POINT
8
1
10
-2.77823675809719
20
37.09939497845818
0
TEXT
8
2
10
-2.77823675809719
20
37.09939497845818
40
0.07
1
695
0
POINT
8
1
10
-3.44358641585843
20
38.99626633947241
0
TEXT
8
2
10
-3.44358641585843
20
38.99626633947241
40
0.07
1
696
0
POINT
8
1
10
-3.466932068081551
20
38.99258738090904
0
TEXT
8
2
10
-3.466932068081551
20
38.99258738090904
40
0.07
1
697
0
POINT
8
1
10
-3.426110905669493
20
39.00425452905027
0
TEXT
8
2
10
-3.426110905669493
20
39.00425452905027
40
0.07
1
698
0
POINT
8
1
10
-2.793360495021951
20
37.09221317916699
0
TEXT
8
2
10
-2.793360495021951
20
37.09221317916699
40
0.07
1
699
0
POINT
8
1
10
-2.811523843025094
20
37.0881935486561
0
TEXT
8
2
10
-2.811523843025094
20
37.0881935486561
40
0.07
1
700
0
POINT
8
1
10
-2.778362586005015
20
37.10040732553353
0
TEXT
8
2
10
-2.778362586005015
20
37.10040732553353
40
0.07
1
701
0
POINT
8
1
10
-2.978885044742806
20
45.36419323242509
0
TEXT
8
2
10
-2.978885044742806
20
45.36419323242509
40
0.07
1
702
0
POINT
8
1
10
-3.002927466572746
20
45.36281976082129
0
TEXT
8
2
10
-3.002927466572746
20
45.36281976082129
40
0.07
1
703
0
POINT
8
1
10
-2.966846628586575
20
45.36944484767832
0
TEXT
8
2
10
-2.966846628586575
20
45.36944484767832
40
0.07
1
704
0
POINT
8
1
10
-3.07944751913049
20
49.90454351340257
0
TEXT
8
2
10
-3.07944751913049
20
49.90454351340257
40
0.07
1
705
0
POINT
8
1
10
-3.093497857084111
20
49.90244165562631
0
TEXT
8
2
10
-3.093497857084111
20
49.90244165562631
40
0.07
1
706
0
POINT
8
1
10
-3.067784293159458
20
49.90830313281675
0
TEXT
8
2
10
-3.067784293159458
20
49.90830313281675
40
0.07
1
707
0
POINT
8
1
10
1.314472338088944
20
38.69986828463806
0
TEXT
8
2
10
1.314472338088944
20
38.69986828463806
40
0.07
1
708
0
POINT
8
1
10
1.29636530807327
20
38.70696660095354
0
TEXT
8
2
10
1.29636530807327
20
38.70696660095354
40
0.07
1
709
0
POINT
8
1
10
1.329261087973662
20
38.70017017006867
0
TEXT
8
2
10
1.329261087973662
20
38.70017017006867
40
0.07
1
710
0
POINT
8
1
10
1.50620966736208
20
32.61785254883883
0
TEXT
8
2
10
1.50620966736208
20
32.61785254883883
40
0.07
1
711
0
POINT
8
1
10
1.485982856768469
20
32.62755173159292
0
TEXT
8
2
10
1.485982856768469
20
32.62755173159292
40
0.07
1
712
0
POINT
8
1
10
1.520520342556239
20
32.6163138056726
0
TEXT
8
2
10
1.520520342556239
20
32.6163138056726
40
0.07
1
713
0
POINT
8
1
10
1.64910689681595
20
19.01791021259257
0
TEXT
8
2
10
1.64910689681595
20
19.01791021259257
40
0.07
1
714
0
POINT
8
1
10
1.671743245556432
20
19.01552210727508
0
TEXT
8
2
10
1.671743245556432
20
19.01552210727508
40
0.07
1
715
0
POINT
8
1
10
1.625310912367636
20
19.0080135526076
0
TEXT
8
2
10
1.625310912367636
20
19.0080135526076
40
0.07
1
716
0
POINT
8
1
10
1.779906899136682
20
12.96165297339228
0
TEXT
8
2
10
1.779906899136682
20
12.96165297339228
40
0.07
1
717
0
POINT
8
1
10
1.800299290090895
20
12.96183392761055
0
TEXT
8
2
10
1.800299290090895
20
12.96183392761055
40
0.07
1
718
0
POINT
8
1
10
1.766503317400188
20
12.95620424310901
0
TEXT
8
2
10
1.766503317400188
20
12.95620424310901
40
0.07
1
719
0
POINT
8
1
10
2.07156602332095
20
6.869108901407489
0
TEXT
8
2
10
2.07156602332095
20
6.869108901407489
40
0.07
1
720
0
POINT
8
1
10
2.093192430835999
20
6.866049060388036
0
TEXT
8
2
10
2.093192430835999
20
6.866049060388036
40
0.07
1
721
0
POINT
8
1
10
2.053567557363954
20
6.864481711383013
0
TEXT
8
2
10
2.053567557363954
20
6.864481711383013
40
0.07
1
722
0
POINT
8
1
10
-2.247062895901489
20
14.38205315586812
0
TEXT
8
2
10
-2.247062895901489
20
14.38205315586812
40
0.07
1
724
0
POINT
8
1
10
-2.22809706653961
20
14.37653180937071
0
TEXT
8
2
10
-2.22809706653961
20
14.37653180937071
40
0.07
1
725
0
POINT
8
1
10
-2.267120176557807
20
14.38065522391476
0
TEXT
8
2
10
-2.267120176557807
20
14.38065522391476
40
0.07
1
726
0
POINT
8
1
10
-2.426980746789142
20
18.95436407674357
0
TEXT
8
2
10
-2.426980746789142
20
18.95436407674357
40
0.07
1
727
0
POINT
8
1
10
-2.406049431789289
20
18.94609083402264
0
TEXT
8
2
10
-2.406049431789289
20
18.94609083402264
40
0.07
1
728
0
POINT
8
1
10
-2.444037290913795
20
18.95419373829471
0
TEXT
8
2
10
-2.444037290913795
20
18.95419373829471
40
0.07
1
729
0
POINT
8
1
10
-2.497798716596525
20
26.55299095051488
0
TEXT
8
2
10
-2.497798716596525
20
26.55299095051488
40
0.07
1
730
0
POINT
8
1
10
-2.476918056047518
20
26.54314776850348
0
TEXT
8
2
10
-2.476918056047518
20
26.54314776850348
40
0.07
1
731
0
POINT
8
1
10
-2.516973223830113
20
26.5534162087376
0
TEXT
8
2
10
-2.516973223830113
20
26.5534162087376
40
0.07
1
732
0
POINT
8
1
10
-2.48835290014901
20
29.59667573838272
0
TEXT
8
2
10
-2.48835290014901
20
29.59667573838272
40
0.07
1
733
0
POINT
8
1
10
-2.467647387211373
20
29.58865981153116
0
TEXT
8
2
10
-2.467647387211373
20
29.58865981153116
40
0.07
1
734
0
POINT
8
1
10
-2.504271222330149
20
29.59741573557183
0
TEXT
8
2
10
-2.504271222330149
20
29.59741573557183
40
0.07
1
735
0
POINT
8
1
10
-2.768880037934342
20
37.16595289843221
0
TEXT
8
2
10
-2.768880037934342
20
37.16595289843221
40
0.07
1
736
0
POINT
8
1
10
-2.777869761259819
20
37.17454269067144
0
TEXT
8
2
10
-2.777869761259819
20
37.17454269067144
40
0.07
1
737
0
POINT
8
1
10
-2.782116444191025
20
37.17753680926415
0
TEXT
8
2
10
-2.782116444191025
20
37.17753680926415
40
0.07
1
738
0
POINT
8
1
10
-2.768040986855406
20
37.16463456779088
0
TEXT
8
2
10
-2.768040986855406
20
37.16463456779088
40
0.07
1
739
0
POINT
8
1
10
-2.76138268571171
20
37.1505318661809
0
TEXT
8
2
10
-2.76138268571171
20
37.1505318661809
40
0.07
1
740
0
POINT
8
1
10
-2.760135240570068
20
37.14123288676535
0
TEXT
8
2
10
-2.760135240570068
20
37.14123288676535
40
0.07
1
741
0
POINT
8
1
10
-3.409386267840787
20
39.04837057678538
0
TEXT
8
2
10
-3.409386267840787
20
39.04837057678538
40
0.07
1
742
0
POINT
8
1
10
-3.410695152939512
20
39.05528473761187
0
TEXT
8
2
10
-3.410695152939512
20
39.05528473761187
40
0.07
1
743
0
POINT
8
1
10
-3.413168080886694
20
39.06053996312471
0
TEXT
8
2
10
-3.413168080886694
20
39.06053996312471
40
0.07
1
744
0
POINT
8
1
10
-3.40943034873477
20
39.04793099505739
0
TEXT
8
2
10
-3.40943034873477
20
39.04793099505739
40
0.07
1
745
0
POINT
8
1
10
-3.409851879746024
20
39.03335560136919
0
TEXT
8
2
10
-3.409851879746024
20
39.03335560136919
40
0.07
1
746
0
POINT
8
1
10
-3.411708460286695
20
39.02429209756364
0
TEXT
8
2
10
-3.411708460286695
20
39.02429209756364
40
0.07
1
747
0
POINT
8
1
10
-3.415402321465782
20
39.01682763838074
0
TEXT
8
2
10
-3.415402321465782
20
39.01682763838074
40
0.07
1
748
0
POINT
8
1
10
-2.971251602916334
20
45.36644951098554
0
TEXT
8
2
10
-2.971251602916334
20
45.36644951098554
40
0.07
1
749
0
POINT
8
1
10
-2.989241272066342
20
45.3613316780152
0
TEXT
8
2
10
-2.989241272066342
20
45.3613316780152
40
0.07
1
750
0
POINT
8
1
10
-2.961185166556159
20
45.3715738096005
0
TEXT
8
2
10
-2.961185166556159
20
45.3715738096005
40
0.07
1
751
0
POINT
8
1
10
-3.074510032048745
20
49.90384518061969
0
TEXT
8
2
10
-3.074510032048745
20
49.90384518061969
40
0.07
1
752
0
POINT
8
1
10
-3.093866624255772
20
49.90108000044182
0
TEXT
8
2
10
-3.093866624255772
20
49.90108000044182
40
0.07
1
753
0
POINT
8
1
10
-3.062030739491312
20
49.91105860869876
0
TEXT
8
2
10
-3.062030739491312
20
49.91105860869876
40
0.07
1
754
0
POINT
8
1
10
-3.145753947570671
20
52.94720739723645
0
TEXT
8
2
10
-3.145753947570671
20
52.94720739723645
40
0.07
1
755
0
POINT
8
1
10
-3.167187110394915
20
52.94799932959747
0
TEXT
8
2
10
-3.167187110394915
20
52.94799932959747
40
0.07
1
756
0
POINT
8
1
10
-3.126440841372325
20
52.95513951825728
0
TEXT
8
2
10
-3.126440841372325
20
52.95513951825728
40
0.07
1
757
0
POINT
8
1
10
7.331037479967379
20
39.34150162486654
0
TEXT
8
2
10
7.331037479967379
20
39.34150162486654
40
0.07
1
758
0
POINT
8
1
10
7.333439858820709
20
39.36148445340829
0
TEXT
8
2
10
7.333439858820709
20
39.36148445340829
40
0.07
1
759
0
POINT
8
1
10
7.335652398885523
20
39.32089531442578
0
TEXT
8
2
10
7.335652398885523
20
39.32089531442578
40
0.07
1
760
0
POINT
8
1
10
1.272871594043274
20
38.75613332971275
0
TEXT
8
2
10
1.272871594043274
20
38.75613332971275
40
0.07
1
761
0
POINT
8
1
10
1.271947656936207
20
38.7486836372374
0
TEXT
8
2
10
1.271947656936207
20
38.7486836372374
40
0.07
1
762
0
POINT
8
1
10
1.272988707864001
20
38.74116536093166
0
TEXT
8
2
10
1.272988707864001
20
38.74116536093166
40
0.07
1
763
0
POINT
8
1
10
1.274993294494974
20
38.73336849457453
0
TEXT
8
2
10
1.274993294494974
20
38.73336849457453
40
0.07
1
764
0
POINT
8
1
10
1.27598404679227
20
38.73017808031339
0
TEXT
8
2
10
1.27598404679227
20
38.73017808031339
40
0.07
1
765
0
POINT
8
1
10
1.279446763217801
20
38.77800284538416
0
TEXT
8
2
10
1.279446763217801
20
38.77800284538416
40
0.07
1
766
0
POINT
8
1
10
1.277560079624447
20
38.77343529547224
0
TEXT
8
2
10
1.277560079624447
20
38.77343529547224
40
0.07
1
767
0
POINT
8
1
10
1.276649893505582
20
38.76938494706275
0
TEXT
8
2
10
1.276649893505582
20
38.76938494706275
40
0.07
1
768
0
POINT
8
1
10
1.274751933014331
20
38.76407439513028
0
TEXT
8
2
10
1.274751933014331
20
38.76407439513028
40
0.07
1
769
0
POINT
8
1
10
1.272807746568255
20
38.76068420850262
0
TEXT
8
2
10
1.272807746568255
20
38.76068420850262
40
0.07
1
770
0
POINT
8
1
10
1.503230305771599
20
32.71349375833466
0
TEXT
8
2
10
1.503230305771599
20
32.71349375833466
40
0.07
1
771
0
POINT
8
1
10
1.522791298836534
20
32.71520554573411
0
TEXT
8
2
10
1.522791298836534
20
32.71520554573411
40
0.07
1
772
0
POINT
8
1
10
1.485643327461011
20
32.7030416189114
0
TEXT
8
2
10
1.485643327461011
20
32.7030416189114
40
0.07
1
773
0
POINT
8
1
10
1.651807837944535
20
19.01770806980774
0
TEXT
8
2
10
1.651807837944535
20
19.01770806980774
40
0.07
1
774
0
POINT
8
1
10
1.670503807356808
20
19.01655266339708
0
TEXT
8
2
10
1.670503807356808
20
19.01655266339708
40
0.07
1
775
0
POINT
8
1
10
1.633577253324552
20
19.01289767584393
0
TEXT
8
2
10
1.633577253324552
20
19.01289767584393
40
0.07
1
776
0
POINT
8
1
10
-2.501624199683677
20
26.55217655014053
0
TEXT
8
2
10
-2.501624199683677
20
26.55217655014053
40
0.07
1
778
0
POINT
8
1
10
-2.480553270295729
20
26.54334718693635
0
TEXT
8
2
10
-2.480553270295729
20
26.54334718693635
40
0.07
1
779
0
POINT
8
1
10
-2.516766562843166
20
26.55115934330558
0
TEXT
8
2
10
-2.516766562843166
20
26.55115934330558
40
0.07
1
780
0
POINT
8
1
10
-2.488929953700594
20
29.59783607442615
0
TEXT
8
2
10
-2.488929953700594
20
29.59783607442615
40
0.07
1
781
0
POINT
8
1
10
-2.466191289480879
20
29.58829219265332
0
TEXT
8
2
10
-2.466191289480879
20
29.58829219265332
40
0.07
1
782
0
POINT
8
1
10
-2.505728803056028
20
29.59839789599803
0
TEXT
8
2
10
-2.505728803056028
20
29.59839789599803
40
0.07
1
783
0
POINT
8
1
10
-2.79452403807392
20
37.18330211306355
0
TEXT
8
2
10
-2.79452403807392
20
37.18330211306355
40
0.07
1
784
0
POINT
8
1
10
-2.77517357887403
20
37.17150219366382
0
TEXT
8
2
10
-2.77517357887403
20
37.17150219366382
40
0.07
1
785
0
POINT
8
1
10
-2.811380370579637
20
37.18609254500032
0
TEXT
8
2
10
-2.811380370579637
20
37.18609254500032
40
0.07
1
786
0
POINT
8
1
10
-3.440335469816777
20
39.08628757998439
0
TEXT
8
2
10
-3.440335469816777
20
39.08628757998439
40
0.07
1
787
0
POINT
8
1
10
-3.421871325330024
20
39.07311726555244
0
TEXT
8
2
10
-3.421871325330024
20
39.07311726555244
40
0.07
1
788
0
POINT
8
1
10
-3.456878401132184
20
39.09001190281194
0
TEXT
8
2
10
-3.456878401132184
20
39.09001190281194
40
0.07
1
789
0
POINT
8
1
10
-2.963807084171795
20
45.45060413821079
0
TEXT
8
2
10
-2.963807084171795
20
45.45060413821079
40
0.07
1
790
0
POINT
8
1
10
-2.970689137667483
20
45.45444569203252
0
TEXT
8
2
10
-2.970689137667483
20
45.45444569203252
40
0.07
1
791
0
POINT
8
1
10
-2.959587333137291
20
45.44691232562927
0
TEXT
8
2
10
-2.959587333137291
20
45.44691232562927
40
0.07
1
792
0
POINT
8
1
10
-2.951092674630521
20
45.43789644489442
0
TEXT
8
2
10
-2.951092674630521
20
45.43789644489442
40
0.07
1
793
0
POINT
8
1
10
-2.942994296653303
20
45.42306457006558
0
TEXT
8
2
10
-2.942994296653303
20
45.42306457006558
40
0.07
1
794
0
POINT
8
1
10
-3.045230612804476
20
49.92982278645636
0
TEXT
8
2
10
-3.045230612804476
20
49.92982278645636
40
0.07
1
795
0
POINT
8
1
10
-3.057417410269137
20
49.91357489708523
0
TEXT
8
2
10
-3.057417410269137
20
49.91357489708523
40
0.07
1
796
0
POINT
8
1
10
-3.040089965589568
20
49.95171641915871
0
TEXT
8
2
10
-3.040089965589568
20
49.95171641915871
40
0.07
1
797
0
POINT
8
1
10
-3.12246259715111
20
52.95914205457377
0
TEXT
8
2
10
-3.12246259715111
20
52.95914205457377
40
0.07
1
798
0
POINT
8
1
10
-3.108064212891829
20
52.97671099848028
0
TEXT
8
2
10
-3.108064212891829
20
52.97671099848028
40
0.07
1
799
0
POINT
8
1
10
-3.148878648903787
20
52.94761637522533
0
TEXT
8
2
10
-3.148878648903787
20
52.94761637522533
40
0.07
1
800
0
POINT
8
1
10
-3.246872291652514
20
57.51123093988624
0
TEXT
8
2
10
-3.246872291652514
20
57.51123093988624
40
0.07
1
801
0
POINT
8
1
10
-3.268134410019273
20
57.50630804445272
0
TEXT
8
2
10
-3.268134410019273
20
57.50630804445272
40
0.07
1
802
0
POINT
8
1
10
-3.230190960872112
20
57.52185393423851
0
TEXT
8
2
10
-3.230190960872112
20
57.52185393423851
40
0.07
1
803
0
POINT
8
1
10
-3.313625151691838
20
60.5570662820077
0
TEXT
8
2
10
-3.313625151691838
20
60.5570662820077
40
0.07
1
804
0
POINT
8
1
10
-3.334795778202019
20
60.55291674044275
0
TEXT
8
2
10
-3.334795778202019
20
60.55291674044275
40
0.07
1
805
0
POINT
8
1
10
-3.298019267502435
20
60.56684642747399
0
TEXT
8
2
10
-3.298019267502435
20
60.56684642747399
40
0.07
1
806
0
POINT
8
1
10
-3.38826134721733
20
63.59786401852039
0
TEXT
8
2
10
-3.38826134721733
20
63.59786401852039
40
0.07
1
807
0
POINT
8
1
10
-3.412868039408546
20
63.59809071694981
0
TEXT
8
2
10
-3.412868039408546
20
63.59809071694981
40
0.07
1
808
0
POINT
8
1
10
-3.372329677310894
20
63.60580584005992
0
TEXT
8
2
10
-3.372329677310894
20
63.60580584005992
40
0.07
1
809
0
POINT
8
1
10
7.348333072887972
20
39.38126861477027
0
TEXT
8
2
10
7.348333072887972
20
39.38126861477027
40
0.07
1
810
0
POINT
8
1
10
7.370572714711073
20
39.39148768740851
0
TEXT
8
2
10
7.370572714711073
20
39.39148768740851
40
0.07
1
811
0
POINT
8
1
10
7.338034595229191
20
39.36915009114807
0
TEXT
8
2
10
7.338034595229191
20
39.36915009114807
40
0.07
1
812
0
POINT
8
1
10
1.313910298437142
20
38.79755349042973
0
TEXT
8
2
10
1.313910298437142
20
38.79755349042973
40
0.07
1
813
0
POINT
8
1
10
1.33703201009344
20
38.79596479972597
0
TEXT
8
2
10
1.33703201009344
20
38.79596479972597
40
0.07
1
814
0
POINT
8
1
10
1.29698279757098
20
38.79178768126307
0
TEXT
8
2
10
1.29698279757098
20
38.79178768126307
40
0.07
1
815
0
POINT
8
1
10
1.509233938296095
20
32.71325908156979
0
TEXT
8
2
10
1.509233938296095
20
32.71325908156979
40
0.07
1
816
0
POINT
8
1
10
1.536294853116616
20
32.71131549582603
0
TEXT
8
2
10
1.536294853116616
20
32.71131549582603
40
0.07
1
817
0
POINT
8
1
10
1.491278251620185
20
32.70589655173285
0
TEXT
8
2
10
1.491278251620185
20
32.70589655173285
40
0.07
1
818
0
POINT
8
1
10
-2.798705073099248
20
37.18516081518739
0
TEXT
8
2
10
-2.798705073099248
20
37.18516081518739
40
0.07
1
820
0
POINT
8
1
10
-2.780066795954071
20
37.17648329912131
0
TEXT
8
2
10
-2.780066795954071
20
37.17648329912131
40
0.07
1
821
0
POINT
8
1
10
-2.814352848373332
20
37.18513084811508
0
TEXT
8
2
10
-2.814352848373332
20
37.18513084811508
40
0.07
1
822
0
POINT
8
1
10
-3.447585603234584
20
39.0884627976337
0
TEXT
8
2
10
-3.447585603234584
20
39.0884627976337
40
0.07
1
823
0
POINT
8
1
10
-3.426613327796668
20
39.077997622341
0
TEXT
8
2
10
-3.426613327796668
20
39.077997622341
40
0.07
1
824
0
POINT
8
1
10
-3.46212238220446
20
39.08906293170711
0
TEXT
8
2
10
-3.46212238220446
20
39.08906293170711
40
0.07
1
825
0
POINT
8
1
10
-2.978239338547614
20
45.45595589418682
0
TEXT
8
2
10
-2.978239338547614
20
45.45595589418682
40
0.07
1
826
0
POINT
8
1
10
-2.958690915141209
20
45.44459166491315
0
TEXT
8
2
10
-2.958690915141209
20
45.44459166491315
40
0.07
1
827
0
POINT
8
1
10
-2.995139841396466
20
45.45894093696989
0
TEXT
8
2
10
-2.995139841396466
20
45.45894093696989
40
0.07
1
828
0
POINT
8
1
10
-3.063032329459401
20
49.98980871350928
0
TEXT
8
2
10
-3.063032329459401
20
49.98980871350928
40
0.07
1
829
0
POINT
8
1
10
-3.050170873083398
20
49.97888386550447
0
TEXT
8
2
10
-3.050170873083398
20
49.97888386550447
40
0.07
1
830
0
POINT
8
1
10
-3.077147993184249
20
49.99801210494849
0
TEXT
8
2
10
-3.077147993184249
20
49.99801210494849
40
0.07
1
831
0
POINT
8
1
10
-3.114151272849631
20
53.02391851764526
0
TEXT
8
2
10
-3.114151272849631
20
53.02391851764526
40
0.07
1
832
0
POINT
8
1
10
-3.107089956148143
20
53.00707832663164
0
TEXT
8
2
10
-3.107089956148143
20
53.00707832663164
40
0.07
1
833
0
POINT
8
1
10
-3.125178222658309
20
53.03608162918796
0
TEXT
8
2
10
-3.125178222658309
20
53.03608162918796
40
0.07
1
834
0
POINT
8
1
10
-3.219870528027138
20
57.53923813081124
0
TEXT
8
2
10
-3.219870528027138
20
57.53923813081124
40
0.07
1
835
0
POINT
8
1
10
-3.232780130875004
20
57.51951533726517
0
TEXT
8
2
10
-3.232780130875004
20
57.51951533726517
40
0.07
1
836
0
POINT
8
1
10
-3.216488935158717
20
57.55689034969485
0
TEXT
8
2
10
-3.216488935158717
20
57.55689034969485
40
0.07
1
837
0
POINT
8
1
10
-3.29771981910088
20
60.56570048226974
0
TEXT
8
2
10
-3.29771981910088
20
60.56570048226974
40
0.07
1
838
0
POINT
8
1
10
-3.316127894561381
20
60.55516791870448
0
TEXT
8
2
10
-3.316127894561381
20
60.55516791870448
40
0.07
1
839
0
POINT
8
1
10
-3.287676041928388
20
60.58084363982158
0
TEXT
8
2
10
-3.287676041928388
20
60.58084363982158
40
0.07
1
840
0
POINT
8
1
10
-3.373693982062892
20
63.60512487191745
0
TEXT
8
2
10
-3.373693982062892
20
63.60512487191745
40
0.07
1
841
0
POINT
8
1
10
-3.392432019994649
20
63.59738310103387
0
TEXT
8
2
10
-3.392432019994649
20
63.59738310103387
40
0.07
1
842
0
POINT
8
1
10
-3.357358835666348
20
63.62059480005571
0
TEXT
8
2
10
-3.357358835666348
20
63.62059480005571
40
0.07
1
843
0
POINT
8
1
10
-3.446693719430599
20
39.08823647938058
0
TEXT
8
2
10
-3.446693719430599
20
39.08823647938058
40
0.07
1
844
0
POINT
8
1
10
-3.425388025963297
20
39.07665711176409
0
TEXT
8
2
10
-3.425388025963297
20
39.07665711176409
40
0.07
1
845
0
POINT
8
1
10
-3.460863293823018
20
39.08874234138095
0
TEXT
8
2
10
-3.460863293823018
20
39.08874234138095
40
0.07
1
846
0
POINT
8
1
10
7.362959048977991
20
39.38914322650857
0
TEXT
8
2
10
7.362959048977991
20
39.38914322650857
40
0.07
1
847
0
POINT
8
1
10
7.385375794114814
20
39.39275590905437
0
TEXT
8
2
10
7.385375794114814
20
39.39275590905437
40
0.07
1
848
0
POINT
8
1
10
7.347624255743964
20
39.38085172472284
0
TEXT
8
2
10
7.347624255743964
20
39.38085172472284
40
0.07
1
849
0
POINT
8
1
10
1.320941234335842
20
38.79936359328714
0
TEXT
8
2
10
1.320941234335842
20
38.79936359328714
40
0.07
1
850
0
POINT
8
1
10
1.342985642322018
20
38.79506360466559
0
TEXT
8
2
10
1.342985642322018
20
38.79506360466559
40
0.07
1
851
0
POINT
8
1
10
1.302724859142104
20
38.7958031997482
0
TEXT
8
2
10
1.302724859142104
20
38.7958031997482
40
0.07
1
852
0
POINT
8
1
10
1.302724859142104
20
38.7958031997482
0
TEXT
8
2
10
1.302724859142104
20
38.7958031997482
40
0.07
1
853
0
POINT
8
1
10
1.519862450950166
20
32.71461040913824
0
TEXT
8
2
10
1.519862450950166
20
32.71461040913824
40
0.07
1
854
0
POINT
8
1
10
1.541658577286756
20
32.70930655201227
0
TEXT
8
2
10
1.541658577286756
20
32.70930655201227
40
0.07
1
855
0
POINT
8
1
10
1.503396887842265
20
32.71209482972214
0
TEXT
8
2
10
1.503396887842265
20
32.71209482972214
40
0.07
1
856
0
POINT
8
1
10
-3.510699917126988
20
63.6201481585545
0
TEXT
8
2
10
-3.510699917126988
20
63.6201481585545
40
0.07
1
4
0
POINT
8
1
10
10.94640582802334
20
64.519529645015
0
TEXT
8
2
10
10.94640582802334
20
64.519529645015
40
0.07
1
15
0
POINT
8
1
10
-2.799148251291646
20
37.18464892360477
0
TEXT
8
2
10
-2.799148251291646
20
37.18464892360477
40
0.07
1
858
0
POINT
8
1
10
-2.812900710052664
20
37.18584408697649
0
TEXT
8
2
10
-2.812900710052664
20
37.18584408697649
40
0.07
1
859
0
POINT
8
1
10
-2.781169979541277
20
37.17671019881587
0
TEXT
8
2
10
-2.781169979541277
20
37.17671019881587
40
0.07
1
860
0
POINT
8
1
10
-3.444709812047737
20
39.08835604780707
0
TEXT
8
2
10
-3.444709812047737
20
39.08835604780707
40
0.07
1
861
0
POINT
8
1
10
-3.426790794298782
20
39.07766331864624
0
TEXT
8
2
10
-3.426790794298782
20
39.07766331864624
40
0.07
1
862
0
POINT
8
1
10
-3.461280832159248
20
39.0896178294119
0
TEXT
8
2
10
-3.461280832159248
20
39.0896178294119
40
0.07
1
863
0
POINT
8
1
10
-2.981501627241687
20
45.4578602951265
0
TEXT
8
2
10
-2.981501627241687
20
45.4578602951265
40
0.07
1
864
0
POINT
8
1
10
-2.962460232563978
20
45.4491316980301
0
TEXT
8
2
10
-2.962460232563978
20
45.4491316980301
40
0.07
1
865
0
POINT
8
1
10
-2.995752280642764
20
45.45926822973449
0
TEXT
8
2
10
-2.995752280642764
20
45.45926822973449
40
0.07
1
866
0
POINT
8
1
10
-3.076526608762869
20
49.99736579155118
0
TEXT
8
2
10
-3.076526608762869
20
49.99736579155118
40
0.07
1
867
0
POINT
8
1
10
-3.057015109018606
20
49.98673189238692
0
TEXT
8
2
10
-3.057015109018606
20
49.98673189238692
40
0.07
1
868
0
POINT
8
1
10
-3.092383925521988
20
50.00050222545743
0
TEXT
8
2
10
-3.092383925521988
20
50.00050222545743
40
0.07
1
869
0
POINT
8
1
10
-3.136004233030919
20
53.04130320193127
0
TEXT
8
2
10
-3.136004233030919
20
53.04130320193127
40
0.07
1
870
0
POINT
8
1
10
-3.117910609580575
20
53.02811168455427
0
TEXT
8
2
10
-3.117910609580575
20
53.02811168455427
40
0.07
1
871
0
POINT
8
1
10
-3.155047063668727
20
53.04514646690787
0
TEXT
8
2
10
-3.155047063668727
20
53.04514646690787
40
0.07
1
872
0
POINT
8
1
10
-3.236235520536664
20
57.59641718817229
0
TEXT
8
2
10
-3.236235520536664
20
57.59641718817229
40
0.07
1
873
0
POINT
8
1
10
-3.22314556565868
20
57.58140139496232
0
TEXT
8
2
10
-3.22314556565868
20
57.58140139496232
40
0.07
1
874
0
POINT
8
1
10
-3.255457939093142
20
57.60485758121635
0
TEXT
8
2
10
-3.255457939093142
20
57.60485758121635
40
0.07
1
875
0
POINT
8
1
10
-3.290126824253057
20
60.62789660515885
0
TEXT
8
2
10
-3.290126824253057
20
60.62789660515885
40
0.07
1
876
0
POINT
8
1
10
-3.282908533422902
20
60.60961047307188
0
TEXT
8
2
10
-3.282908533422902
20
60.60961047307188
40
0.07
1
877
0
POINT
8
1
10
-3.303913622313633
20
60.643565632869
0
TEXT
8
2
10
-3.303913622313633
20
60.643565632869
40
0.07
1
878
0
POINT
8
1
10
-3.350235661206723
20
63.64866345954835
0
TEXT
8
2
10
-3.350235661206723
20
63.64866345954835
40
0.07
1
879
0
POINT
8
1
10
-3.351859222148682
20
63.62915842018916
0
TEXT
8
2
10
-3.351859222148682
20
63.62915842018916
40
0.07
1
880
0
POINT
8
1
10
-3.35451875842175
20
63.66704654372333
0
TEXT
8
2
10
-3.35451875842175
20
63.66704654372333
40
0.07
1
881
0
POINT
8
1
10
7.366496384345066
20
39.39007029709854
0
TEXT
8
2
10
7.366496384345066
20
39.39007029709854
40
0.07
1
882
0
POINT
8
1
10
7.391544753916901
20
39.38999014380373
0
TEXT
8
2
10
7.391544753916901
20
39.38999014380373
40
0.07
1
883
0
POINT
8
1
10
7.350071069275587
20
39.38300125252509
0
TEXT
8
2
10
7.350071069275587
20
39.38300125252509
40
0.07
1
884
0
POINT
8
1
10
1.322718423742167
20
38.79713906805004
0
TEXT
8
2
10
1.322718423742167
20
38.79713906805004
40
0.07
1
885
0
POINT
8
1
10
1.341975021468842
20
38.79404350725625
0
TEXT
8
2
10
1.341975021468842
20
38.79404350725625
40
0.07
1
886
0
POINT
8
1
10
1.304611050073158
20
38.79524242730685
0
TEXT
8
2
10
1.304611050073158
20
38.79524242730685
40
0.07
1
887
0
POINT
8
1
10
0
20
0
0
TEXT
8
2
10
0
20
0
40
0.07
1
*
0
POINT
8
1
10
*
20
0
0
TEXT
8
2
10
*
20
0
40
0.07
1
*
0
ENDSEC
0
EOF